<svg width="157" height="82" viewBox="0 0 157 82" fill="none" xmlns="http://www.w3.org/2000/svg">
<mask id="mask0_12_1298" style="mask-type:luminance" maskUnits="userSpaceOnUse" x="46" y="0" width="45" height="30">
<path d="M46.1172 0H90.6641V30H46.1172V0Z" fill="white"/>
</mask>
<g mask="url(#mask0_12_1298)">
<path d="M66.888 2.78125L61.6849 8.01562C61.5078 8.19271 61.4714 8.45312 61.5859 8.67708C61.7057 8.90625 61.9453 9.01042 62.1901 8.95833L67.3932 7.89583C67.6536 7.84375 67.8411 7.61458 67.8411 7.34896V3.17708C67.8411 2.94792 67.7057 2.75 67.4922 2.65625C67.2839 2.57812 67.0495 2.61979 66.888 2.78125ZM75.0703 8.02083L69.8672 2.79167C69.7057 2.63021 69.4714 2.57812 69.2578 2.66667C69.0391 2.75521 68.9036 2.95312 68.9036 3.1875V7.34896C68.9036 7.61458 69.0964 7.84375 69.3568 7.89583L74.5599 8.96875C74.7995 9.02083 75.0443 8.90625 75.1589 8.6875C75.2891 8.46354 75.2526 8.20312 75.0703 8.02083ZM57.2786 8.44271L54.1172 2.125C54.0339 1.95312 53.8932 1.85417 53.7005 1.82292C53.5234 1.79167 53.3516 1.84896 53.2161 1.97396L48.5026 6.70833C48.3464 6.85938 48.3047 7.06771 48.3568 7.26562C48.4193 7.47396 48.5703 7.60938 48.7786 7.65104L56.6641 9.25521C56.8776 9.30208 57.0859 9.21875 57.2214 9.04688C57.3568 8.86979 57.3776 8.64063 57.2786 8.44271ZM65.1432 24.1719L58.5182 10.9271C58.4349 10.7656 58.3047 10.6667 58.1328 10.6302L50.138 9.01042C49.8932 8.95833 49.6536 9.07292 49.5339 9.30208C49.4193 9.52604 49.4557 9.78646 49.6328 9.96875L64.3984 24.7292C64.5599 24.8906 64.8203 24.9167 65.0078 24.7708C65.1901 24.6302 65.2422 24.375 65.1432 24.1719ZM78.237 10.9271L71.6172 24.1719C71.5078 24.375 71.5703 24.6302 71.7578 24.7656C71.9453 24.901 72.2005 24.8802 72.3724 24.7188L87.1328 9.95833C87.3151 9.77604 87.3464 9.51563 87.2318 9.29167C87.112 9.06771 86.8724 8.95833 86.6276 9.00521L78.638 10.625C78.4557 10.6615 78.3203 10.7656 78.237 10.9271ZM82.6328 2.125L79.4714 8.44271C79.3724 8.64063 79.3932 8.85938 79.5286 9.04167C79.6641 9.20833 79.8672 9.29167 80.0859 9.24479L87.9714 7.65104C88.1745 7.60938 88.3411 7.46354 88.3932 7.26562C88.4557 7.05729 88.4036 6.85938 88.2474 6.70833L83.5339 1.98438C83.3984 1.84896 83.2266 1.79167 83.0443 1.82812C82.8672 1.85417 82.7214 1.96354 82.6328 2.125ZM78.2057 8.61458L81.5703 1.875C81.6589 1.69271 81.6484 1.49479 81.5443 1.32292C81.4349 1.15625 81.263 1.05729 81.0651 1.05729H71.0026C70.7682 1.05729 70.5703 1.19271 70.4818 1.39583C70.3932 1.61458 70.4349 1.84896 70.5964 2.01042L77.2943 8.75C77.4297 8.88542 77.6016 8.94271 77.7786 8.91146C77.9766 8.89583 78.1224 8.78646 78.2057 8.61458ZM69.8047 25.4219L76.888 11.2448C76.9714 11.0833 76.9714 10.9115 76.888 10.75C76.8099 10.5885 76.6745 10.4792 76.4922 10.4427L69.5807 9.02083C69.4089 8.98438 69.2474 9.02083 69.112 9.14062C68.9766 9.24479 68.9036 9.40104 68.9036 9.56771V25.2031C68.9036 25.4323 69.0495 25.6094 69.263 25.6615C69.4922 25.7292 69.7057 25.6198 69.8047 25.4219ZM59.8672 11.2448L66.9505 25.4219C67.0495 25.6198 67.2682 25.7188 67.4818 25.6719C67.7005 25.6198 67.8411 25.4375 67.8411 25.2135V9.57812C67.8411 9.40625 67.7734 9.25521 67.638 9.14583C67.5026 9.04167 67.3411 8.99479 67.1693 9.03125L60.2578 10.4427C60.0755 10.4792 59.9401 10.5885 59.862 10.75C59.7891 10.9115 59.7891 11.0938 59.8672 11.2448ZM55.1797 1.88542L58.5443 8.625C58.6276 8.79688 58.7682 8.89583 58.9609 8.93229C59.138 8.95833 59.3203 8.90625 59.4453 8.77083L66.1432 2.02604C66.3047 1.86458 66.3516 1.63021 66.2578 1.41667C66.1693 1.19792 65.9714 1.07292 65.737 1.07292H55.6849C55.487 1.07292 55.3151 1.17188 55.2057 1.34375C55.0964 1.50521 55.0911 1.70312 55.1797 1.88542ZM83.2161 0.166667L90.4453 7.39062C90.6536 7.59896 90.6536 7.94271 90.4453 8.14583L68.7526 29.8385C68.7422 29.849 68.737 29.8594 68.7161 29.8698L68.7057 29.875C68.7057 29.875 68.7005 29.875 68.7005 29.8854L68.6901 29.8958C68.6901 29.8958 68.6797 29.8958 68.6797 29.901C68.6693 29.901 68.6693 29.9115 68.6641 29.9115L68.6536 29.9219C68.6536 29.9219 68.6432 29.9219 68.6432 29.9323C68.6432 29.9323 68.6432 29.9323 68.638 29.9323C68.638 29.9323 68.638 29.9323 68.6276 29.9323C68.6276 29.9323 68.6172 29.9323 68.6172 29.9375H68.6068C68.6068 29.9375 68.6016 29.9375 68.6016 29.9479C68.5339 29.974 68.4661 29.9948 68.3932 29.9948C68.3203 29.9948 68.2474 29.974 68.1849 29.9479C68.1849 29.9479 68.1745 29.9479 68.1745 29.9375H68.1693C68.1589 29.9375 68.1589 29.9323 68.1484 29.9323H68.138C68.138 29.9323 68.1328 29.9323 68.1328 29.9219H68.112C68.1068 29.9219 68.1068 29.9115 68.0964 29.9115C68.0859 29.9115 68.0859 29.901 68.0755 29.901C68.0755 29.901 68.0703 29.901 68.0703 29.8958C68.0703 29.8958 68.0599 29.8958 68.0599 29.8854L68.0495 29.875C68.0391 29.8698 68.0339 29.8594 68.013 29.849L46.3203 8.15625C46.1172 7.94792 46.1172 7.60938 46.3203 7.40104L53.5391 0.15625C53.638 0.0572927 53.7734 0 53.9193 0H82.8464C82.9922 0 83.1276 0.067708 83.2161 0.166667Z" fill="#CDA349"/>
</g>
<path d="M41.4514 73.1778C41.4358 73.6361 41.4305 74.0736 41.4305 74.4903C41.4305 74.6725 41.4201 74.86 41.4097 75.0528C41.4097 75.235 41.4097 75.4225 41.4097 75.6153C41.4097 75.7975 41.4097 75.9694 41.4097 76.1361C41.4097 76.3028 41.4097 76.4486 41.4097 76.5736C41.4097 76.8392 41.4097 77.1673 41.4097 77.5528C41.4097 77.9434 41.4097 78.3392 41.4097 78.7403C41.4201 79.1465 41.4358 79.5319 41.4514 79.9069C41.4618 80.2715 41.4774 80.5736 41.493 80.8236C41.5451 80.8236 41.6233 80.834 41.7222 80.8444C41.816 80.86 41.9149 80.8757 42.0139 80.8861C42.1233 80.8861 42.2274 80.8861 42.3264 80.8861C42.4201 80.8861 42.5035 80.8861 42.5764 80.8861C42.868 80.8861 43.1597 80.8757 43.4514 80.8444C43.743 80.8028 44.0243 80.735 44.3055 80.6361C44.5816 80.5267 44.8368 80.3809 45.0764 80.1986C45.3264 80.0059 45.5399 79.7611 45.7222 79.4694C45.8993 79.1778 46.0399 78.834 46.1389 78.4278C46.2483 78.0111 46.3055 77.5267 46.3055 76.9694C46.3055 76.36 46.2274 75.8184 46.0764 75.3444C45.9358 74.86 45.7222 74.4486 45.4305 74.1153C45.1493 73.7819 44.7951 73.5319 44.368 73.3653C43.9358 73.1986 43.4514 73.1153 42.9097 73.1153C42.7951 73.1153 42.6701 73.1153 42.5347 73.1153C42.3941 73.1153 42.2535 73.1257 42.118 73.1361C41.993 73.1361 41.868 73.1465 41.743 73.1569C41.6285 73.1725 41.5347 73.1778 41.4514 73.1778ZM40.118 72.6361C40.2118 72.6361 40.3055 72.6465 40.3889 72.6569C40.4566 72.6569 40.5243 72.6569 40.5972 72.6569C40.6649 72.6569 40.7274 72.6569 40.7847 72.6569C40.8524 72.6569 40.9774 72.6569 41.1597 72.6569C41.3368 72.6465 41.5399 72.6361 41.7639 72.6361C41.9983 72.6257 42.243 72.6153 42.493 72.6153C42.743 72.6048 42.9722 72.5944 43.1805 72.5944C43.7639 72.5944 44.316 72.6673 44.8472 72.8028C45.3733 72.9434 45.8368 73.1778 46.243 73.5111C46.6441 73.8444 46.9566 74.2819 47.1805 74.8236C47.4149 75.3548 47.5347 76.0059 47.5347 76.7819C47.5347 77.3548 47.4722 77.86 47.3472 78.3028C47.2326 78.7507 47.066 79.1465 46.8472 79.4903C46.6233 79.8236 46.3524 80.1153 46.0347 80.3653C45.7274 80.6153 45.3889 80.8184 45.0139 80.9694C44.6493 81.1257 44.2535 81.2403 43.8264 81.3236C43.4097 81.3913 42.9722 81.4278 42.5139 81.4278C42.3576 81.4278 42.1649 81.4173 41.9305 81.4069C41.7066 81.3913 41.4774 81.3757 41.243 81.3653C41.0191 81.3496 40.8055 81.334 40.5972 81.3236C40.3993 81.3236 40.243 81.3236 40.118 81.3236V81.3028C40.1441 81.2194 40.1649 81.1153 40.1805 80.9903C40.2066 80.8653 40.2274 80.7142 40.243 80.5319C40.2691 80.3392 40.2847 80.1153 40.2847 79.8653C40.2951 79.6048 40.3055 79.3028 40.3055 78.9694V75.0319C40.3055 74.6882 40.2951 74.3861 40.2847 74.1361C40.2847 73.8757 40.2691 73.6517 40.243 73.4694C40.2274 73.2767 40.2066 73.1153 40.1805 72.9903C40.1649 72.8548 40.1441 72.7403 40.118 72.6569V72.6361Z" fill="white"/>
<path d="M52.4807 72.6569C52.9911 72.6569 53.4911 72.6569 53.9807 72.6569C54.4807 72.6569 54.939 72.6569 55.3557 72.6569C55.7724 72.6465 56.1265 72.6309 56.4182 72.6152C56.7099 72.6048 56.9078 72.584 57.0224 72.5527L56.7307 73.3652C56.5901 73.3236 56.4286 73.2923 56.2515 73.2611C56.0953 73.2507 55.9078 73.2298 55.689 73.1986C55.4807 73.1725 55.2307 73.1569 54.939 73.1569C54.8401 73.1569 54.7203 73.1673 54.5849 73.1777C54.4599 73.1777 54.3349 73.1882 54.2099 73.1986C54.0536 73.1986 53.9078 73.209 53.7724 73.2194V76.5111C54.189 76.5111 54.564 76.5059 54.8974 76.4902C55.2307 76.4642 55.512 76.4434 55.7515 76.4277C56.012 76.4017 56.2515 76.3757 56.4599 76.3444L56.2724 77.2194C55.9911 77.1777 55.7099 77.1465 55.4182 77.1152C55.1682 77.0892 54.8974 77.0684 54.6057 77.0527C54.314 77.0267 54.0328 77.0111 53.7724 77.0111V80.7819C54.2411 80.7819 54.6734 80.7715 55.064 80.7402C55.4651 80.6986 55.8193 80.6517 56.1265 80.5944C56.4703 80.5423 56.7828 80.4694 57.064 80.3861L56.8974 81.3652C56.8401 81.3652 56.762 81.3548 56.6682 81.3444C56.5849 81.3444 56.4807 81.3444 56.3557 81.3444C56.2307 81.3444 56.1057 81.3444 55.9807 81.3444C55.8557 81.3444 55.7307 81.334 55.6057 81.3236C55.4911 81.3236 55.387 81.3236 55.2932 81.3236C55.2099 81.3236 55.1474 81.3236 55.1057 81.3236H52.4807V81.3027C52.5068 81.2194 52.5276 81.1152 52.5432 80.9902C52.5693 80.8652 52.5901 80.7142 52.6057 80.5319C52.6318 80.3392 52.6474 80.1152 52.6474 79.8652C52.6578 79.6048 52.6682 79.3027 52.6682 78.9694V75.0319C52.6682 74.6882 52.6578 74.3861 52.6474 74.1361C52.6474 73.8757 52.6318 73.6517 52.6057 73.4694C52.5901 73.2767 52.5693 73.1152 52.5432 72.9902C52.5276 72.8652 52.5068 72.7611 52.4807 72.6777V72.6569Z" fill="white"/>
<path d="M65.7044 74.0319H65.5794C65.5377 73.9486 65.4804 73.8549 65.4127 73.7403C65.3398 73.6153 65.2513 73.5059 65.1419 73.4069C65.0273 73.2976 64.8919 73.209 64.7252 73.1361C64.5586 73.0684 64.3606 73.0319 64.1419 73.0319C63.944 73.0319 63.7721 73.0684 63.6211 73.1361C63.4648 73.1934 63.3346 73.2767 63.2252 73.3861C63.1263 73.4851 63.0481 73.6101 62.9961 73.7611C62.9544 73.9174 62.9336 74.084 62.9336 74.2611C62.9336 74.5528 63.0065 74.834 63.1627 75.0944C63.3294 75.3601 63.5273 75.6257 63.7669 75.8861C64.0169 76.1361 64.2877 76.3965 64.5794 76.6569C64.8711 76.9069 65.1315 77.1726 65.3711 77.4486C65.6211 77.7299 65.819 78.0215 65.9752 78.3236C66.1419 78.6309 66.2252 78.959 66.2252 79.3028C66.2252 79.5684 66.1731 79.834 66.0794 80.0944C65.9961 80.3601 65.8554 80.5944 65.6627 80.8028C65.4804 81.0111 65.2356 81.1882 64.9336 81.3236C64.6419 81.4486 64.2929 81.5111 63.8919 81.5111C63.6523 81.5111 63.4336 81.4903 63.2252 81.4486C63.0169 81.4069 62.819 81.3549 62.6419 81.3028C62.4752 81.2351 62.319 81.1674 62.1836 81.0944C62.0429 81.0111 61.9336 80.9434 61.8502 80.8861L61.9752 79.5528H62.1419C62.1836 79.7507 62.2513 79.9278 62.3502 80.0944C62.444 80.2611 62.5638 80.4174 62.7044 80.5528C62.8554 80.6778 63.0273 80.7819 63.2252 80.8653C63.4179 80.9382 63.6263 80.9694 63.8502 80.9694C64.0586 80.9694 64.2356 80.9434 64.3919 80.8861C64.5586 80.8184 64.694 80.7351 64.8086 80.6361C64.9336 80.5267 65.0221 80.3965 65.0794 80.2403C65.1471 80.0736 65.1836 79.9017 65.1836 79.7194C65.1836 79.4694 65.1315 79.2403 65.0377 79.0319C64.9544 78.8132 64.8346 78.6049 64.6836 78.4069C64.5273 78.2142 64.3554 78.0267 64.1627 77.8444C63.9648 77.6674 63.7669 77.4851 63.5586 77.3028C63.3606 77.1257 63.1679 76.9382 62.9752 76.7403C62.7929 76.5476 62.6263 76.3392 62.4752 76.1153C62.319 75.8965 62.194 75.6569 62.1002 75.4069C62.0169 75.1569 61.9752 74.8809 61.9752 74.5736C61.9752 74.2559 62.0273 73.9694 62.1419 73.7194C62.2669 73.4694 62.4336 73.2559 62.6419 73.0736C62.8502 72.8809 63.0794 72.7403 63.3294 72.6569C63.5898 72.5632 63.8606 72.5111 64.1419 72.5111C64.3346 72.5111 64.5169 72.5267 64.6836 72.5528C64.8502 72.584 65.0013 72.6257 65.1419 72.6778C65.2773 72.7194 65.3971 72.7611 65.4961 72.8028C65.5898 72.8444 65.6731 72.8809 65.7461 72.9069L65.7044 74.0319Z" fill="white"/>
<path d="M71.3062 81.3028C71.3322 81.2194 71.353 81.1153 71.3687 80.9903C71.3947 80.8653 71.4155 80.7142 71.4312 80.5319C71.4416 80.3392 71.452 80.1153 71.452 79.8653C71.4624 79.6048 71.4728 79.3028 71.4728 78.9694V75.0319C71.4728 74.6882 71.4624 74.3861 71.452 74.1361C71.452 73.8757 71.4416 73.6517 71.4312 73.4694C71.4155 73.2767 71.3947 73.1153 71.3687 72.9903C71.353 72.8653 71.3322 72.7611 71.3062 72.6778V72.6569H72.7437V72.6778C72.728 72.7611 72.7072 72.8653 72.6812 72.9903C72.6499 73.1153 72.6291 73.2767 72.6187 73.4694C72.603 73.6517 72.5874 73.8757 72.577 74.1361C72.577 74.3861 72.577 74.6882 72.577 75.0319V78.9694C72.577 79.3028 72.577 79.6048 72.577 79.8653C72.5874 80.1153 72.603 80.3392 72.6187 80.5319C72.6291 80.7142 72.6499 80.8653 72.6812 80.9903C72.7072 81.1153 72.728 81.2194 72.7437 81.3028V81.3236H71.3062V81.3028Z" fill="white"/>
<path d="M85.7061 80.3028C85.7061 80.3444 85.6956 80.3965 85.6852 80.4486C85.6696 80.4903 85.6436 80.5319 85.6019 80.5736C85.4196 80.7142 85.2269 80.8392 85.0186 80.9486C84.8102 81.0632 84.5811 81.1569 84.3311 81.2403C84.0915 81.3236 83.8311 81.3861 83.5394 81.4278C83.2581 81.4799 82.9561 81.5111 82.6227 81.5111C81.8831 81.5111 81.2113 81.4069 80.6019 81.1986C80.0029 80.9799 79.4873 80.6726 79.0602 80.2819C78.6279 79.8809 78.2946 79.4017 78.0602 78.8444C77.8206 78.2924 77.7061 77.6778 77.7061 77.0111C77.7061 76.6257 77.7529 76.2507 77.8519 75.8861C77.9456 75.5111 78.0863 75.1569 78.2686 74.8236C78.4613 74.4903 78.6956 74.1882 78.9769 73.9069C79.2529 73.6153 79.5706 73.3757 79.9352 73.1778C80.2946 72.9694 80.6852 72.8132 81.1019 72.6986C81.529 72.5736 81.9977 72.5111 82.4977 72.5111C82.6904 72.5111 82.8831 72.5267 83.0811 72.5528C83.2894 72.5684 83.4873 72.5944 83.6852 72.6361C83.8936 72.6674 84.0863 72.709 84.2686 72.7611C84.4456 72.8028 84.6227 72.8549 84.7894 72.9069L85.2061 74.0319L85.1436 74.0528C84.9873 73.9174 84.8102 73.7819 84.6019 73.6569C84.404 73.5319 84.1904 73.4278 83.9561 73.3444C83.7165 73.2507 83.4665 73.1778 83.2061 73.1361C82.9561 73.084 82.6956 73.0528 82.4352 73.0528C81.9352 73.0528 81.4665 73.1361 81.0394 73.3028C80.6227 73.459 80.2581 73.6882 79.9561 73.9903C79.6488 74.2976 79.4144 74.6726 79.2477 75.1153C79.0811 75.5476 78.9977 76.0424 78.9977 76.5944C78.9977 77.2194 79.0706 77.7976 79.2269 78.3236C79.3936 78.8549 79.6331 79.3132 79.9561 79.6986C80.2738 80.0736 80.6696 80.3757 81.1436 80.5944C81.6123 80.8184 82.1696 80.9278 82.8102 80.9278C83.0863 80.9278 83.3363 80.9069 83.5602 80.8653C83.779 80.8132 83.9665 80.7559 84.1227 80.6986C84.2738 80.6309 84.3936 80.5632 84.4769 80.4903C84.5602 80.4069 84.6019 80.334 84.6019 80.2611V80.0319C84.6019 79.7403 84.5915 79.5007 84.5811 79.3028C84.5811 79.0944 84.5654 78.9174 84.5394 78.7611C84.5238 78.6101 84.5029 78.4799 84.4769 78.3653C84.4613 78.2559 84.4404 78.1569 84.4144 78.0736V78.0528H85.8727V78.0736C85.8415 78.1569 85.8154 78.2559 85.7894 78.3653C85.7738 78.4799 85.7581 78.6153 85.7477 78.7819C85.7321 78.9382 85.7165 79.1153 85.7061 79.3236C85.7061 79.5319 85.7061 79.7767 85.7061 80.0528V80.3028Z" fill="white"/>
<path d="M91.127 72.6569L97.3354 79.2819V75.0319C97.3354 74.6882 97.325 74.3861 97.3145 74.1361C97.3145 73.8757 97.3041 73.6517 97.2937 73.4694C97.2781 73.2767 97.2572 73.1153 97.2312 72.9903C97.2156 72.8653 97.1947 72.7611 97.1687 72.6778V72.6569H98.252V72.6778C98.2208 72.7611 98.1947 72.8653 98.1687 72.9903C98.1531 73.1153 98.1375 73.2767 98.127 73.4694C98.1114 73.6517 98.0958 73.8757 98.0854 74.1361C98.0854 74.3861 98.0854 74.6882 98.0854 75.0319V81.4486H97.8562L91.6479 74.8236V78.9694C91.6479 79.3028 91.6479 79.6048 91.6479 79.8653C91.6583 80.1153 91.6739 80.3392 91.6895 80.5319C91.7 80.7142 91.7156 80.8653 91.7312 80.9903C91.7572 81.1153 91.7833 81.2194 91.8145 81.3028V81.3236H90.7312V81.3028C90.7572 81.2194 90.7781 81.1153 90.7937 80.9903C90.8197 80.8653 90.8406 80.7142 90.8562 80.5319C90.8666 80.3392 90.8822 80.1153 90.8979 79.8653C90.9083 79.6048 90.9187 79.3028 90.9187 78.9694V75.0319C90.9187 74.6882 90.9083 74.3861 90.8979 74.1361C90.8822 73.8757 90.8666 73.6517 90.8562 73.4694C90.8406 73.2767 90.8197 73.1153 90.7937 72.9903C90.7781 72.8653 90.7572 72.7611 90.7312 72.6778V72.6569H91.127Z" fill="white"/>
<path d="M90.8208 42.2012C89.8625 42.2012 88.9979 42.2429 88.2375 42.3262C87.4719 42.4095 86.8104 42.5033 86.2583 42.597C85.6177 42.7116 85.0396 42.8418 84.5292 42.9929L84.8833 41.0345C84.9771 41.0345 85.1229 41.045 85.3208 41.0554C85.5135 41.071 85.7271 41.0866 85.9667 41.097C86.201 41.097 86.451 41.097 86.7167 41.097C86.9771 41.097 87.2219 41.1075 87.4458 41.1179C87.6802 41.1179 87.8885 41.1179 88.0708 41.1179C88.2479 41.1179 88.3833 41.1179 88.4667 41.1179H95.3833C95.4667 41.1179 95.5969 41.1179 95.7792 41.1179C95.9563 41.1179 96.1594 41.1179 96.3833 41.1179C96.6177 41.1075 96.8677 41.097 97.1333 41.097C97.3938 41.097 97.6438 41.097 97.8833 41.097C98.1177 41.0866 98.3313 41.071 98.5292 41.0554C98.7219 41.045 98.8677 41.0345 98.9667 41.0345L99.3208 42.9929C98.8052 42.8418 98.2219 42.7116 97.5708 42.597C97.0135 42.5033 96.3521 42.4095 95.5917 42.3262C94.826 42.2429 93.9719 42.2012 93.0292 42.2012V53.7429C93.0292 54.4252 93.0344 55.0241 93.05 55.5345C93.0604 56.0502 93.0813 56.4929 93.1125 56.8679C93.1542 57.2325 93.1958 57.5345 93.2375 57.7845C93.2792 58.0345 93.3208 58.2533 93.3625 58.4304V58.472H90.4875V58.4304C90.5292 58.2533 90.5708 58.0345 90.6125 57.7845C90.6542 57.5345 90.6854 57.2325 90.7167 56.8679C90.7583 56.4929 90.7844 56.0502 90.8 55.5345C90.8104 55.0241 90.8208 54.4252 90.8208 53.7429V42.2012Z" fill="white"/>
<path d="M106.379 58.4304C106.431 58.2533 106.483 58.0345 106.525 57.7845C106.567 57.5345 106.598 57.2324 106.629 56.8679C106.655 56.4929 106.676 56.0502 106.692 55.5345C106.718 55.0241 106.733 54.4252 106.733 53.7429V45.8679C106.733 45.1908 106.718 44.5918 106.692 44.0762C106.676 43.5658 106.655 43.1179 106.629 42.7429C106.598 42.3679 106.567 42.0554 106.525 41.8054C106.483 41.5554 106.431 41.347 106.379 41.1804V41.1179H109.275V41.1804C109.233 41.347 109.181 41.5554 109.129 41.8054C109.088 42.0554 109.051 42.3679 109.025 42.7429C108.994 43.1179 108.968 43.5658 108.942 44.0762C108.926 44.5918 108.921 45.1908 108.921 45.8679V53.7429C108.921 54.4252 108.926 55.0241 108.942 55.5345C108.968 56.0502 108.994 56.4929 109.025 56.8679C109.051 57.2324 109.088 57.5345 109.129 57.7845C109.181 58.0345 109.233 58.2533 109.275 58.4304V58.472H106.379V58.4304Z" fill="white"/>
<path d="M118.756 41.1179L131.215 54.3887V45.8679C131.215 45.1908 131.199 44.5918 131.173 44.0762C131.157 43.5658 131.137 43.1179 131.111 42.7429C131.079 42.3679 131.038 42.0554 130.986 41.8054C130.944 41.5554 130.902 41.347 130.861 41.1804V41.1179H133.006V41.1804C132.965 41.347 132.923 41.5554 132.881 41.8054C132.84 42.0554 132.798 42.3679 132.756 42.7429C132.725 43.1179 132.704 43.5658 132.694 44.0762C132.678 44.5918 132.673 45.1908 132.673 45.8679V58.722H132.236L119.777 45.472V53.7429C119.777 54.4252 119.782 55.0241 119.798 55.5345C119.824 56.0502 119.85 56.4929 119.881 56.8679C119.907 57.2324 119.944 57.5345 119.986 57.7845C120.027 58.0345 120.074 58.2533 120.131 58.4304V58.472H117.965V58.4304C118.017 58.2533 118.069 58.0345 118.111 57.7845C118.152 57.5345 118.183 57.2324 118.215 56.8679C118.256 56.4929 118.282 56.0502 118.298 55.5345C118.308 55.0241 118.319 54.4252 118.319 53.7429V45.8679C118.319 45.1908 118.308 44.5918 118.298 44.0762C118.282 43.5658 118.256 43.1179 118.215 42.7429C118.183 42.3679 118.152 42.0554 118.111 41.8054C118.069 41.5554 118.017 41.347 117.965 41.1804V41.1179H118.756Z" fill="white"/>
<path d="M153.592 58.472V58.4303C153.603 58.3887 153.613 58.3262 153.613 58.2428C153.624 58.1595 153.634 58.0918 153.634 58.0345C153.634 57.7845 153.598 57.5085 153.53 57.2012C153.457 56.8991 153.327 56.5137 153.134 56.0553L151.676 52.7845C151.228 52.7585 150.634 52.7428 149.884 52.7428C149.134 52.7428 148.322 52.7428 147.447 52.7428C146.806 52.7428 146.186 52.7428 145.592 52.7428C145.009 52.7428 144.478 52.7585 144.009 52.7845L142.613 55.972C142.488 56.2637 142.353 56.5918 142.217 56.9512C142.077 57.3001 142.009 57.6595 142.009 58.0345C142.009 58.1335 142.014 58.2168 142.03 58.2845C142.056 58.3574 142.077 58.4043 142.092 58.4303V58.472H139.613V58.4303C139.77 58.2793 139.947 58.0085 140.155 57.6178C140.374 57.2168 140.618 56.722 140.884 56.1387L147.801 40.7637H148.78L155.342 55.5553C155.493 55.8887 155.655 56.222 155.822 56.5553C155.988 56.8783 156.139 57.1699 156.28 57.4303C156.431 57.696 156.561 57.9199 156.676 58.097C156.785 58.2637 156.863 58.3783 156.905 58.4303V58.472H153.592ZM145.759 51.7012C146.217 51.7012 146.686 51.7012 147.176 51.7012C147.676 51.7012 148.16 51.7012 148.634 51.7012C149.103 51.6908 149.556 51.6803 149.988 51.6803C150.431 51.6803 150.827 51.6751 151.176 51.6595L147.78 43.972L144.447 51.7012H145.759Z" fill="white"/>
<path d="M12.5208 45.8679C12.5208 45.1908 12.5052 44.5918 12.4792 44.0762C12.4635 43.5658 12.4427 43.1179 12.4167 42.7429C12.3854 42.3679 12.3542 42.0554 12.3125 41.8054C12.2708 41.5554 12.2188 41.347 12.1667 41.1804V41.1179H14.3333V41.1804C14.276 41.347 14.2292 41.5554 14.1875 41.8054C14.1458 42.0554 14.1094 42.3679 14.0833 42.7429C14.0521 43.1179 14.026 43.5658 14 44.0762C13.9844 44.5918 13.9792 45.1908 13.9792 45.8679V52.4095C13.9792 53.5658 13.8125 54.5502 13.4792 55.3679C13.1458 56.1752 12.6875 56.8418 12.1042 57.3679C11.5208 57.8835 10.8125 58.2585 9.97917 58.4929C9.15625 58.7272 8.26042 58.847 7.29167 58.847C6.31771 58.847 5.40625 58.7272 4.5625 58.4929C3.71354 58.2741 2.97917 57.9095 2.35417 57.4095C1.72917 56.9095 1.23437 56.2585 0.875 55.4512C0.526041 54.6491 0.354167 53.6699 0.354167 52.5137V45.8679C0.354167 45.1908 0.343749 44.5918 0.333333 44.0762C0.317708 43.5658 0.291667 43.1179 0.25 42.7429C0.218749 42.3679 0.1875 42.0554 0.145833 41.8054C0.104167 41.5554 0.0520827 41.347 0 41.1804V41.1179H2.91667V41.1804C2.85937 41.347 2.8125 41.5554 2.77083 41.8054C2.72917 42.0554 2.6875 42.3679 2.64583 42.7429C2.61458 43.1179 2.59375 43.5658 2.58333 44.0762C2.56771 44.5918 2.5625 45.1908 2.5625 45.8679V52.6595C2.5625 53.6179 2.69792 54.4095 2.97917 55.0345C3.27083 55.6595 3.64583 56.1595 4.10417 56.5345C4.57292 56.8991 5.10938 57.1543 5.70833 57.3054C6.30208 57.446 6.91667 57.5137 7.54167 57.5137C8.16667 57.5137 8.77604 57.446 9.375 57.3054C9.96875 57.1543 10.5 56.8991 10.9583 56.5345C11.4167 56.1595 11.7917 55.6595 12.0833 55.0345C12.375 54.4095 12.5208 53.6179 12.5208 52.6595V45.8679Z" fill="white"/>
<path d="M23.0184 58.4304C23.0705 58.2533 23.1226 58.0345 23.1643 57.7845C23.2059 57.5345 23.2372 57.2324 23.2684 56.8679C23.2945 56.4929 23.3153 56.0502 23.3309 55.5345C23.357 55.0241 23.3726 54.4252 23.3726 53.7429V45.8679C23.3726 45.1908 23.357 44.5918 23.3309 44.0762C23.3153 43.5658 23.2945 43.1179 23.2684 42.7429C23.2372 42.3679 23.2059 42.0554 23.1643 41.8054C23.1226 41.5554 23.0705 41.347 23.0184 41.1804V41.1179H25.9143V41.1804C25.8726 41.347 25.8205 41.5554 25.7684 41.8054C25.7268 42.0554 25.6903 42.3679 25.6643 42.7429C25.633 43.1179 25.607 43.5658 25.5809 44.0762C25.5653 44.5918 25.5601 45.1908 25.5601 45.8679V53.7429C25.5601 54.4252 25.5653 55.0241 25.5809 55.5345C25.607 56.0502 25.633 56.4929 25.6643 56.8679C25.6903 57.2324 25.7268 57.5345 25.7684 57.7845C25.8205 58.0345 25.8726 58.2533 25.9143 58.4304V58.472H23.0184V58.4304Z" fill="white"/>
<path d="M47.1247 45.8679C47.1247 45.1908 47.1091 44.5918 47.083 44.0762C47.0674 43.5658 47.0466 43.1179 47.0205 42.7429C46.9893 42.3679 46.958 42.0554 46.9164 41.8054C46.8747 41.5554 46.8226 41.347 46.7705 41.1804V41.1179H48.9372V41.1804C48.8799 41.347 48.833 41.5554 48.7914 41.8054C48.7497 42.0554 48.7133 42.3679 48.6872 42.7429C48.656 43.1179 48.6299 43.5658 48.6039 44.0762C48.5883 44.5918 48.583 45.1908 48.583 45.8679V52.4095C48.583 53.5658 48.4164 54.5502 48.083 55.3679C47.7497 56.1752 47.2914 56.8418 46.708 57.3679C46.1247 57.8835 45.4164 58.2585 44.583 58.4929C43.7601 58.7272 42.8643 58.847 41.8955 58.847C40.9216 58.847 40.0101 58.7272 39.1664 58.4929C38.3174 58.2741 37.583 57.9095 36.958 57.4095C36.333 56.9095 35.8383 56.2585 35.4789 55.4512C35.1299 54.6491 34.958 53.6699 34.958 52.5137V45.8679C34.958 45.1908 34.9476 44.5918 34.9372 44.0762C34.9216 43.5658 34.8955 43.1179 34.8539 42.7429C34.8226 42.3679 34.7914 42.0554 34.7497 41.8054C34.708 41.5554 34.656 41.347 34.6039 41.1804V41.1179H37.5205V41.1804C37.4633 41.347 37.4164 41.5554 37.3747 41.8054C37.333 42.0554 37.2914 42.3679 37.2497 42.7429C37.2185 43.1179 37.1976 43.5658 37.1872 44.0762C37.1716 44.5918 37.1664 45.1908 37.1664 45.8679V52.6595C37.1664 53.6179 37.3018 54.4095 37.583 55.0345C37.8747 55.6595 38.2497 56.1595 38.708 56.5345C39.1768 56.8991 39.7133 57.1543 40.3122 57.3054C40.906 57.446 41.5205 57.5137 42.1455 57.5137C42.7705 57.5137 43.3799 57.446 43.9789 57.3054C44.5726 57.1543 45.1039 56.8991 45.5622 56.5345C46.0205 56.1595 46.3955 55.6595 46.6872 55.0345C46.9789 54.4095 47.1247 53.6179 47.1247 52.6595V45.8679Z" fill="white"/>
<path d="M68.0372 51.5345L62.1413 59.0137C61.9174 59.2793 61.7038 59.5554 61.4955 59.847C61.2872 60.1283 61.0997 60.3991 60.933 60.6595C60.7663 60.9252 60.6257 61.1752 60.5163 61.4095C60.4017 61.6335 60.3497 61.821 60.3497 61.972H57.1205V61.9095C57.3705 61.7012 57.7142 61.3835 58.1622 60.9512C58.6205 60.5085 59.0997 59.9616 59.5997 59.3054L66.933 50.097L59.4122 40.2012C58.9955 39.6752 58.584 39.2325 58.183 38.8679C57.7924 38.5085 57.4955 38.2741 57.2872 38.1595V38.097H62.5163C62.5163 38.222 62.5267 38.3991 62.558 38.6179C62.5997 38.8262 62.6726 39.0762 62.7872 39.3679C62.8965 39.6491 63.0476 39.9616 63.2455 40.3054C63.4382 40.6387 63.6934 41.0085 64.0163 41.4095L68.8288 47.722L74.1205 41.0762C74.3288 40.8262 74.5267 40.5658 74.7247 40.2845C74.9174 39.9929 75.084 39.7168 75.2247 39.4512C75.3757 39.1752 75.5007 38.92 75.5997 38.6804C75.6934 38.446 75.7455 38.2533 75.7455 38.097H78.9747V38.1595C78.8601 38.2429 78.7351 38.347 78.5997 38.472C78.4747 38.597 78.3184 38.7533 78.1413 38.9304C77.9747 39.1127 77.7872 39.3262 77.5788 39.5762C77.3705 39.8158 77.1309 40.097 76.8705 40.4304L69.9122 49.1804L77.683 59.347C78.209 60.0293 78.7038 60.597 79.1622 61.0554C79.6205 61.5033 79.959 61.7845 80.183 61.9095V61.972H74.9955C74.9955 61.722 74.8913 61.3054 74.683 60.722C74.4747 60.1283 74.0788 59.4408 73.4955 58.6595L68.0372 51.5345Z" fill="white"/>
</svg>
