<svg width="157" height="75" viewBox="0 0 157 75" fill="none" xmlns="http://www.w3.org/2000/svg">
<g clip-path="url(#clip0_77_2276)">
<path d="M83.633 17.013L81.4138 9.03242L82.0699 1.35439C82.097 1.06803 82.1001 0.670675 81.8764 0.356665C81.5863 -0.0497707 81.07 -0.0722846 80.6102 0.106247C80.3848 0.193538 72.9783 5.33382 72.8977 5.43731C72.8031 5.43336 68.6638 5.36266 68.6638 5.36266C68.6638 5.36266 64.5242 5.43336 64.43 5.43731C64.3497 5.33382 56.9428 0.193538 56.7175 0.106247C56.2581 -0.0718896 55.7414 -0.0497707 55.4513 0.356665C55.2275 0.67028 55.2307 1.06803 55.2577 1.35439L55.9139 9.03242L53.695 17.013C53.6457 17.1868 53.641 17.3476 53.7888 17.5103C54.8615 18.6905 68.4301 29.9514 68.6642 30C68.8983 29.951 82.467 18.6901 83.5396 17.5103C83.6875 17.3476 83.6827 17.1868 83.6334 17.013H83.633ZM79.0558 3.45411C79.1774 3.32179 79.2859 3.17327 79.4803 3.12272C79.5892 3.09428 79.7962 3.17525 79.8598 3.27558L79.2291 8.47708C79.2291 8.47708 78.8333 8.85113 78.7987 8.82466C78.6075 8.67892 75.8537 7.12111 75.6812 7.00262C76.1606 6.54997 79.0558 3.45371 79.0558 3.45371V3.45411ZM73.8376 7.68554C73.8376 7.68554 77.4458 9.50403 77.5567 9.66005C77.5245 9.70587 71.2483 13.6628 71.056 13.737C71.0818 13.5933 73.8376 7.68554 73.8376 7.68554ZM69.7397 18.9579C69.9479 18.5384 70.3259 17.7955 70.5194 17.4313C70.5508 17.3725 70.5973 17.3495 70.6458 17.361C70.645 17.3788 72.5376 18.8043 72.7446 18.9121C72.8539 18.969 72.9418 19.0634 72.9493 19.1787C72.9565 19.2936 72.9135 19.3861 72.8186 19.4797L70.7285 21.5028C70.6248 21.6011 70.5294 21.6777 70.3756 21.6165C70.3756 21.6165 69.436 21.231 69.1523 21.0683C69.2663 20.8424 70.0449 19.3711 70.2293 19.0077L69.7397 18.9579ZM75.289 13.8603C75.2747 14.0202 74.2942 15.9932 74.2942 15.9932C73.6909 16.1362 71.7892 16.4636 71.0838 16.5777C71.0838 16.5777 72.4064 14.8213 72.7224 14.4081C72.8082 14.2955 72.912 14.2331 73.0499 14.2098C73.0499 14.2098 75.1256 13.8401 75.289 13.8603ZM68.6642 6.941L72.5571 6.93389C72.5626 7.02671 68.7282 14.8738 68.6642 14.9354C68.6002 14.8738 64.7658 7.02671 64.7714 6.93389L68.6642 6.941ZM68.1758 21.0679C67.892 21.2306 66.9525 21.6161 66.9525 21.6161C66.7991 21.6774 66.7033 21.6007 66.5996 21.5024L64.5095 19.4793C64.4145 19.3857 64.3716 19.2932 64.3787 19.1783C64.3863 19.063 64.4741 18.9686 64.5834 18.9117C64.7901 18.8039 66.6826 17.3784 66.6822 17.3606C66.7303 17.3495 66.7772 17.3725 66.8086 17.4309C67.0026 17.7951 67.3805 18.538 67.5884 18.9575L67.0988 19.0073C67.2832 19.3707 68.0617 20.842 68.1758 21.0679ZM66.2725 13.7374C66.0797 13.6632 59.8035 9.70626 59.7717 9.66044C59.8826 9.50443 63.4909 7.68593 63.4909 7.68593C63.4909 7.68593 66.2467 13.5937 66.2725 13.7374ZM66.2443 16.5777C65.5392 16.4636 63.6375 16.1358 63.0338 15.9932C63.0338 15.9932 62.0534 14.0202 62.0391 13.8603C62.2024 13.8405 64.2782 14.2098 64.2782 14.2098C64.4161 14.2331 64.5194 14.2955 64.6057 14.4081C64.9212 14.8213 66.2443 16.5777 66.2443 16.5777ZM57.8478 3.12272C58.0421 3.17327 58.1506 3.32179 58.2722 3.45411C58.2722 3.45411 61.1675 6.55036 61.6468 7.00301C61.4743 7.12151 58.7201 8.67931 58.5294 8.82506C58.4948 8.85113 58.099 8.47748 58.099 8.47748L57.4682 3.27597C57.5322 3.17564 57.7393 3.09467 57.8478 3.12311V3.12272ZM57.3975 10.606C57.6081 10.8276 59.3505 13.2848 59.3874 13.3361L56.0323 15.5279L57.3975 10.6064V10.606ZM56.2867 16.7511L60.1521 14.2663C60.2363 14.2122 60.3142 14.2481 60.3671 14.3192C60.7403 14.8209 61.9922 16.3984 62.2759 16.6789C62.3685 16.7705 62.5164 16.7906 62.6261 16.8057C62.6261 16.8057 65.6505 17.2073 65.6915 17.216C65.6597 17.2559 63.9237 18.3915 63.6983 18.463C63.1157 18.3646 56.4858 16.8669 56.4858 16.8669C56.4103 16.8511 56.326 16.8495 56.2859 16.7511H56.2867ZM59.8067 20.9032C59.6732 20.8736 59.5877 20.8096 59.4923 20.7108C59.2209 20.4296 56.859 18.2485 56.6535 18.0415C57.2119 18.1818 62.0705 19.2012 62.4313 19.296C62.1249 19.5448 60.4863 20.6034 59.9804 20.8866C59.9184 20.9214 59.8564 20.9142 59.8067 20.9032ZM61.2712 21.4822C61.2629 21.4396 61.3082 21.4096 61.3555 21.3811L63.3148 20.2084C63.6602 20.7582 64.6585 22.5171 64.6585 22.5171L61.3714 21.5766C61.3193 21.5616 61.2776 21.5122 61.2716 21.4822H61.2712ZM61.8264 22.5597C62.0426 22.5992 65.24 23.5357 65.2579 23.5401C65.2579 23.5401 66.5551 25.7986 66.7355 26.0743C66.6175 26.0423 61.8264 22.5597 61.8264 22.5597ZM66.3301 22.8927C66.9294 22.6115 68.0224 22.1798 68.3813 22.0316C68.3908 22.5597 68.423 25.2823 68.423 25.2823C68.4075 25.2582 66.9179 23.6025 66.3301 22.8927ZM67.8857 19.3442H69.442L68.6638 20.8337L67.8857 19.3442ZM68.9468 22.0316C69.3057 22.1794 70.3986 22.6115 70.9979 22.8927C70.4101 23.6029 68.9206 25.2586 68.9051 25.2823C68.9051 25.2823 68.9369 22.5597 68.9468 22.0316ZM70.593 26.0743C70.7734 25.7986 72.0706 23.5401 72.0706 23.5401C72.0885 23.5353 75.2858 22.5992 75.502 22.5597C75.502 22.5597 70.711 26.0423 70.593 26.0743ZM76.0568 21.4822C76.0509 21.5122 76.0091 21.5616 75.9571 21.5766L72.6699 22.5171C72.6699 22.5171 73.6683 20.7582 74.0136 20.2084L75.973 21.3811C76.0203 21.4096 76.0656 21.4396 76.0572 21.4822H76.0568ZM77.8357 20.7112C77.7403 20.81 77.6553 20.874 77.5214 20.9036C77.4717 20.9146 77.4097 20.9218 77.3477 20.887C76.8413 20.6038 75.2031 19.5452 74.8967 19.2964C75.2576 19.2016 80.1158 18.1822 80.6746 18.0419C80.4691 18.2493 78.1072 20.43 77.8357 20.7112ZM80.8419 16.8669C80.8419 16.8669 74.2123 18.3646 73.6293 18.463C73.404 18.3911 71.668 17.2559 71.6362 17.216C71.6771 17.2077 74.7016 16.8057 74.7016 16.8057C74.8113 16.791 74.9591 16.7705 75.0517 16.6789C75.3355 16.398 76.5874 14.8209 76.9606 14.3192C77.0138 14.2478 77.0913 14.2118 77.1756 14.2663L81.041 16.7511C81.0012 16.8495 80.9166 16.8511 80.8411 16.8669H80.8419ZM77.9406 13.3361C77.9776 13.2852 79.7199 10.8276 79.9306 10.606L81.2957 15.5275L77.9406 13.3357V13.3361Z" fill="#CDA349"/>
</g>
<path d="M41.4515 66.6432C41.4359 67.1015 41.4307 67.539 41.4307 67.9557C41.4307 68.138 41.4202 68.3255 41.4098 68.5182C41.4098 68.7005 41.4098 68.888 41.4098 69.0807C41.4098 69.263 41.4098 69.4348 41.4098 69.6015C41.4098 69.7682 41.4098 69.914 41.4098 70.039C41.4098 70.3046 41.4098 70.6327 41.4098 71.0182C41.4098 71.4088 41.4098 71.8046 41.4098 72.2057C41.4202 72.6119 41.4359 72.9973 41.4515 73.3723C41.4619 73.7369 41.4775 74.039 41.4932 74.289C41.5452 74.289 41.6234 74.2994 41.7223 74.3098C41.8161 74.3255 41.915 74.3411 42.014 74.3515C42.1234 74.3515 42.2275 74.3515 42.3265 74.3515C42.4202 74.3515 42.5036 74.3515 42.5765 74.3515C42.8682 74.3515 43.1598 74.3411 43.4515 74.3098C43.7432 74.2682 44.0244 74.2005 44.3057 74.1015C44.5817 73.9921 44.8369 73.8463 45.0765 73.664C45.3265 73.4713 45.54 73.2265 45.7223 72.9348C45.8994 72.6432 46.04 72.2994 46.139 71.8932C46.2484 71.4765 46.3057 70.9921 46.3057 70.4348C46.3057 69.8255 46.2275 69.2838 46.0765 68.8098C45.9359 68.3255 45.7223 67.914 45.4307 67.5807C45.1494 67.2473 44.7952 66.9973 44.3682 66.8307C43.9359 66.664 43.4515 66.5807 42.9098 66.5807C42.7952 66.5807 42.6702 66.5807 42.5348 66.5807C42.3942 66.5807 42.2536 66.5911 42.1182 66.6015C41.9932 66.6015 41.8682 66.6119 41.7432 66.6223C41.6286 66.638 41.5348 66.6432 41.4515 66.6432ZM40.1182 66.1015C40.2119 66.1015 40.3057 66.1119 40.389 66.1223C40.4567 66.1223 40.5244 66.1223 40.5973 66.1223C40.665 66.1223 40.7275 66.1223 40.7848 66.1223C40.8525 66.1223 40.9775 66.1223 41.1598 66.1223C41.3369 66.1119 41.54 66.1015 41.764 66.1015C41.9984 66.0911 42.2432 66.0807 42.4932 66.0807C42.7432 66.0702 42.9723 66.0598 43.1807 66.0598C43.764 66.0598 44.3161 66.1327 44.8473 66.2682C45.3734 66.4088 45.8369 66.6432 46.2432 66.9765C46.6442 67.3098 46.9567 67.7473 47.1807 68.289C47.415 68.8202 47.5348 69.4713 47.5348 70.2473C47.5348 70.8202 47.4723 71.3255 47.3473 71.7682C47.2327 72.2161 47.0661 72.6119 46.8473 72.9557C46.6234 73.289 46.3525 73.5807 46.0348 73.8307C45.7275 74.0807 45.389 74.2838 45.014 74.4348C44.6494 74.5911 44.2536 74.7057 43.8265 74.789C43.4098 74.8567 42.9723 74.8932 42.514 74.8932C42.3577 74.8932 42.165 74.8827 41.9307 74.8723C41.7067 74.8567 41.4775 74.8411 41.2432 74.8307C41.0192 74.815 40.8057 74.7994 40.5973 74.789C40.3994 74.789 40.2432 74.789 40.1182 74.789V74.7682C40.1442 74.6848 40.165 74.5807 40.1807 74.4557C40.2067 74.3307 40.2275 74.1796 40.2432 73.9973C40.2692 73.8046 40.2848 73.5807 40.2848 73.3307C40.2952 73.0702 40.3057 72.7682 40.3057 72.4348V68.4973C40.3057 68.1536 40.2952 67.8515 40.2848 67.6015C40.2848 67.3411 40.2692 67.1171 40.2432 66.9348C40.2275 66.7421 40.2067 66.5807 40.1807 66.4557C40.165 66.3202 40.1442 66.2057 40.1182 66.1223V66.1015Z" fill="black"/>
<path d="M52.4805 66.1223C52.9909 66.1223 53.4909 66.1223 53.9805 66.1223C54.4805 66.1223 54.9388 66.1223 55.3555 66.1223C55.7721 66.1119 56.1263 66.0963 56.418 66.0807C56.7096 66.0702 56.9076 66.0494 57.0221 66.0182L56.7305 66.8307C56.5898 66.789 56.4284 66.7577 56.2513 66.7265C56.0951 66.7161 55.9076 66.6952 55.6888 66.664C55.4805 66.6379 55.2305 66.6223 54.9388 66.6223C54.8398 66.6223 54.7201 66.6327 54.5846 66.6432C54.4596 66.6432 54.3346 66.6536 54.2096 66.664C54.0534 66.664 53.9076 66.6744 53.7721 66.6848V69.9765C54.1888 69.9765 54.5638 69.9713 54.8971 69.9557C55.2305 69.9296 55.5117 69.9088 55.7513 69.8932C56.0117 69.8671 56.2513 69.8411 56.4596 69.8098L56.2721 70.6848C55.9909 70.6432 55.7096 70.6119 55.418 70.5807C55.168 70.5546 54.8971 70.5338 54.6055 70.5182C54.3138 70.4921 54.0326 70.4765 53.7721 70.4765V74.2473C54.2409 74.2473 54.6732 74.2369 55.0638 74.2057C55.4648 74.164 55.819 74.1171 56.1263 74.0598C56.4701 74.0077 56.7826 73.9348 57.0638 73.8515L56.8971 74.8307C56.8398 74.8307 56.7617 74.8202 56.668 74.8098C56.5846 74.8098 56.4805 74.8098 56.3555 74.8098C56.2305 74.8098 56.1055 74.8098 55.9805 74.8098C55.8555 74.8098 55.7305 74.7994 55.6055 74.789C55.4909 74.789 55.3867 74.789 55.293 74.789C55.2096 74.789 55.1471 74.789 55.1055 74.789H52.4805V74.7682C52.5065 74.6848 52.5273 74.5807 52.543 74.4557C52.569 74.3307 52.5898 74.1796 52.6055 73.9973C52.6315 73.8046 52.6471 73.5807 52.6471 73.3307C52.6576 73.0702 52.668 72.7682 52.668 72.4348V68.4973C52.668 68.1536 52.6576 67.8515 52.6471 67.6015C52.6471 67.3411 52.6315 67.1171 52.6055 66.9348C52.5898 66.7421 52.569 66.5807 52.543 66.4557C52.5273 66.3307 52.5065 66.2265 52.4805 66.1432V66.1223Z" fill="black"/>
<path d="M65.7048 67.4974H65.5798C65.5381 67.414 65.4808 67.3203 65.4131 67.2057C65.3402 67.0807 65.2516 66.9713 65.1423 66.8724C65.0277 66.763 64.8923 66.6744 64.7256 66.6015C64.5589 66.5338 64.361 66.4974 64.1423 66.4974C63.9443 66.4974 63.7725 66.5338 63.6214 66.6015C63.4652 66.6588 63.335 66.7422 63.2256 66.8515C63.1266 66.9505 63.0485 67.0755 62.9964 67.2265C62.9548 67.3828 62.9339 67.5494 62.9339 67.7265C62.9339 68.0182 63.0068 68.2994 63.1631 68.5599C63.3298 68.8255 63.5277 69.0911 63.7673 69.3515C64.0173 69.6015 64.2881 69.8619 64.5798 70.1224C64.8714 70.3724 65.1318 70.638 65.3714 70.914C65.6214 71.1953 65.8193 71.4869 65.9756 71.789C66.1423 72.0963 66.2256 72.4244 66.2256 72.7682C66.2256 73.0338 66.1735 73.2994 66.0798 73.5599C65.9964 73.8255 65.8558 74.0599 65.6631 74.2682C65.4808 74.4765 65.236 74.6536 64.9339 74.789C64.6423 74.914 64.2933 74.9765 63.8923 74.9765C63.6527 74.9765 63.4339 74.9557 63.2256 74.914C63.0173 74.8724 62.8193 74.8203 62.6423 74.7682C62.4756 74.7005 62.3193 74.6328 62.1839 74.5599C62.0433 74.4765 61.9339 74.4088 61.8506 74.3515L61.9756 73.0182H62.1423C62.1839 73.2161 62.2516 73.3932 62.3506 73.5599C62.4443 73.7265 62.5641 73.8828 62.7048 74.0182C62.8558 74.1432 63.0277 74.2474 63.2256 74.3307C63.4183 74.4036 63.6266 74.4349 63.8506 74.4349C64.0589 74.4349 64.236 74.4088 64.3923 74.3515C64.5589 74.2838 64.6943 74.2005 64.8089 74.1015C64.9339 73.9922 65.0225 73.8619 65.0798 73.7057C65.1475 73.539 65.1839 73.3672 65.1839 73.1849C65.1839 72.9349 65.1318 72.7057 65.0381 72.4974C64.9548 72.2786 64.835 72.0703 64.6839 71.8724C64.5277 71.6797 64.3558 71.4922 64.1631 71.3099C63.9652 71.1328 63.7673 70.9505 63.5589 70.7682C63.361 70.5911 63.1683 70.4036 62.9756 70.2057C62.7933 70.013 62.6266 69.8047 62.4756 69.5807C62.3193 69.3619 62.1943 69.1224 62.1006 68.8724C62.0173 68.6224 61.9756 68.3463 61.9756 68.039C61.9756 67.7213 62.0277 67.4349 62.1423 67.1849C62.2673 66.9349 62.4339 66.7213 62.6423 66.539C62.8506 66.3463 63.0798 66.2057 63.3298 66.1224C63.5902 66.0286 63.861 65.9765 64.1423 65.9765C64.335 65.9765 64.5173 65.9922 64.6839 66.0182C64.8506 66.0494 65.0016 66.0911 65.1423 66.1432C65.2777 66.1849 65.3975 66.2265 65.4964 66.2682C65.5902 66.3099 65.6735 66.3463 65.7464 66.3724L65.7048 67.4974Z" fill="black"/>
<path d="M71.3062 74.7682C71.3322 74.6848 71.353 74.5807 71.3687 74.4557C71.3947 74.3307 71.4155 74.1796 71.4312 73.9973C71.4416 73.8046 71.452 73.5807 71.452 73.3307C71.4624 73.0702 71.4728 72.7682 71.4728 72.4348V68.4973C71.4728 68.1536 71.4624 67.8515 71.452 67.6015C71.452 67.3411 71.4416 67.1171 71.4312 66.9348C71.4155 66.7421 71.3947 66.5807 71.3687 66.4557C71.353 66.3307 71.3322 66.2265 71.3062 66.1432V66.1223H72.7437V66.1432C72.728 66.2265 72.7072 66.3307 72.6812 66.4557C72.6499 66.5807 72.6291 66.7421 72.6187 66.9348C72.603 67.1171 72.5874 67.3411 72.577 67.6015C72.577 67.8515 72.577 68.1536 72.577 68.4973V72.4348C72.577 72.7682 72.577 73.0702 72.577 73.3307C72.5874 73.5807 72.603 73.8046 72.6187 73.9973C72.6291 74.1796 72.6499 74.3307 72.6812 74.4557C72.7072 74.5807 72.728 74.6848 72.7437 74.7682V74.789H71.3062V74.7682Z" fill="black"/>
<path d="M85.7061 73.7682C85.7061 73.8099 85.6956 73.8619 85.6852 73.914C85.6696 73.9557 85.6436 73.9974 85.6019 74.039C85.4196 74.1797 85.2269 74.3047 85.0186 74.414C84.8102 74.5286 84.5811 74.6224 84.3311 74.7057C84.0915 74.789 83.8311 74.8515 83.5394 74.8932C83.2581 74.9453 82.9561 74.9765 82.6227 74.9765C81.8831 74.9765 81.2113 74.8724 80.6019 74.664C80.0029 74.4453 79.4873 74.138 79.0602 73.7474C78.6279 73.3463 78.2946 72.8672 78.0602 72.3099C77.8206 71.7578 77.7061 71.1432 77.7061 70.4765C77.7061 70.0911 77.7529 69.7161 77.8519 69.3515C77.9456 68.9765 78.0863 68.6224 78.2686 68.289C78.4613 67.9557 78.6956 67.6536 78.9769 67.3724C79.2529 67.0807 79.5706 66.8411 79.9352 66.6432C80.2946 66.4349 80.6852 66.2786 81.1019 66.164C81.529 66.039 81.9977 65.9765 82.4977 65.9765C82.6904 65.9765 82.8831 65.9922 83.0811 66.0182C83.2894 66.0338 83.4873 66.0599 83.6852 66.1015C83.8936 66.1328 84.0863 66.1744 84.2686 66.2265C84.4456 66.2682 84.6227 66.3203 84.7894 66.3724L85.2061 67.4974L85.1436 67.5182C84.9873 67.3828 84.8102 67.2474 84.6019 67.1224C84.404 66.9974 84.1904 66.8932 83.9561 66.8099C83.7165 66.7161 83.4665 66.6432 83.2061 66.6015C82.9561 66.5494 82.6956 66.5182 82.4352 66.5182C81.9352 66.5182 81.4665 66.6015 81.0394 66.7682C80.6227 66.9244 80.2581 67.1536 79.9561 67.4557C79.6488 67.763 79.4144 68.138 79.2477 68.5807C79.0811 69.013 78.9977 69.5078 78.9977 70.0599C78.9977 70.6849 79.0706 71.263 79.2269 71.789C79.3936 72.3203 79.6331 72.7786 79.9561 73.164C80.2738 73.539 80.6696 73.8411 81.1436 74.0599C81.6123 74.2838 82.1696 74.3932 82.8102 74.3932C83.0863 74.3932 83.3363 74.3724 83.5602 74.3307C83.779 74.2786 83.9665 74.2213 84.1227 74.164C84.2738 74.0963 84.3936 74.0286 84.4769 73.9557C84.5602 73.8724 84.6019 73.7994 84.6019 73.7265V73.4974C84.6019 73.2057 84.5915 72.9661 84.5811 72.7682C84.5811 72.5599 84.5654 72.3828 84.5394 72.2265C84.5238 72.0755 84.5029 71.9453 84.4769 71.8307C84.4613 71.7213 84.4404 71.6224 84.4144 71.539V71.5182H85.8727V71.539C85.8415 71.6224 85.8154 71.7213 85.7894 71.8307C85.7738 71.9453 85.7581 72.0807 85.7477 72.2474C85.7321 72.4036 85.7165 72.5807 85.7061 72.789C85.7061 72.9974 85.7061 73.2422 85.7061 73.5182V73.7682Z" fill="black"/>
<path d="M91.1273 66.1223L97.3356 72.7473V68.4973C97.3356 68.1536 97.3252 67.8515 97.3148 67.6015C97.3148 67.3411 97.3044 67.1171 97.2939 66.9348C97.2783 66.7421 97.2575 66.5807 97.2314 66.4557C97.2158 66.3307 97.195 66.2265 97.1689 66.1432V66.1223H98.2523V66.1432C98.221 66.2265 98.195 66.3307 98.1689 66.4557C98.1533 66.5807 98.1377 66.7421 98.1273 66.9348C98.1117 67.1171 98.096 67.3411 98.0856 67.6015C98.0856 67.8515 98.0856 68.1536 98.0856 68.4973V74.914H97.8564L91.6481 68.289V72.4348C91.6481 72.7682 91.6481 73.0702 91.6481 73.3307C91.6585 73.5807 91.6742 73.8046 91.6898 73.9973C91.7002 74.1796 91.7158 74.3307 91.7314 74.4557C91.7575 74.5807 91.7835 74.6848 91.8148 74.7682V74.789H90.7314V74.7682C90.7575 74.6848 90.7783 74.5807 90.7939 74.4557C90.82 74.3307 90.8408 74.1796 90.8564 73.9973C90.8669 73.8046 90.8825 73.5807 90.8981 73.3307C90.9085 73.0702 90.9189 72.7682 90.9189 72.4348V68.4973C90.9189 68.1536 90.9085 67.8515 90.8981 67.6015C90.8825 67.3411 90.8669 67.1171 90.8564 66.9348C90.8408 66.7421 90.82 66.5807 90.7939 66.4557C90.7783 66.3307 90.7575 66.2265 90.7314 66.1432V66.1223H91.1273Z" fill="black"/>
<path d="M90.821 37.6666C89.8626 37.6666 88.998 37.7083 88.2376 37.7916C87.472 37.875 86.8105 37.9687 86.2585 38.0625C85.6178 38.1771 85.0397 38.3073 84.5293 38.4583L84.8835 36.5C84.9772 36.5 85.123 36.5104 85.321 36.5208C85.5137 36.5364 85.7272 36.5521 85.9668 36.5625C86.2012 36.5625 86.4512 36.5625 86.7168 36.5625C86.9772 36.5625 87.222 36.5729 87.446 36.5833C87.6803 36.5833 87.8887 36.5833 88.071 36.5833C88.248 36.5833 88.3835 36.5833 88.4668 36.5833H95.3835C95.4668 36.5833 95.597 36.5833 95.7793 36.5833C95.9564 36.5833 96.1595 36.5833 96.3835 36.5833C96.6178 36.5729 96.8678 36.5625 97.1335 36.5625C97.3939 36.5625 97.6439 36.5625 97.8835 36.5625C98.1178 36.5521 98.3314 36.5364 98.5293 36.5208C98.722 36.5104 98.8678 36.5 98.9668 36.5L99.321 38.4583C98.8053 38.3073 98.222 38.1771 97.571 38.0625C97.0137 37.9687 96.3522 37.875 95.5918 37.7916C94.8262 37.7083 93.972 37.6666 93.0293 37.6666V49.2083C93.0293 49.8906 93.0345 50.4896 93.0501 51C93.0605 51.5156 93.0814 51.9583 93.1126 52.3333C93.1543 52.6979 93.196 53 93.2376 53.25C93.2793 53.5 93.321 53.7187 93.3626 53.8958V53.9375H90.4876V53.8958C90.5293 53.7187 90.571 53.5 90.6126 53.25C90.6543 53 90.6855 52.6979 90.7168 52.3333C90.7585 51.9583 90.7845 51.5156 90.8001 51C90.8105 50.4896 90.821 49.8906 90.821 49.2083V37.6666Z" fill="black"/>
<path d="M106.379 53.8958C106.431 53.7187 106.483 53.4999 106.525 53.2499C106.566 52.9999 106.598 52.6979 106.629 52.3333C106.655 51.9583 106.676 51.5156 106.691 50.9999C106.717 50.4895 106.733 49.8906 106.733 49.2083V41.3333C106.733 40.6562 106.717 40.0572 106.691 39.5416C106.676 39.0312 106.655 38.5833 106.629 38.2083C106.598 37.8333 106.566 37.5208 106.525 37.2708C106.483 37.0208 106.431 36.8124 106.379 36.6458V36.5833H109.275V36.6458C109.233 36.8124 109.181 37.0208 109.129 37.2708C109.087 37.5208 109.051 37.8333 109.025 38.2083C108.993 38.5833 108.967 39.0312 108.941 39.5416C108.926 40.0572 108.921 40.6562 108.921 41.3333V49.2083C108.921 49.8906 108.926 50.4895 108.941 50.9999C108.967 51.5156 108.993 51.9583 109.025 52.3333C109.051 52.6979 109.087 52.9999 109.129 53.2499C109.181 53.4999 109.233 53.7187 109.275 53.8958V53.9374H106.379V53.8958Z" fill="black"/>
<path d="M118.757 36.5833L131.215 49.8541V41.3333C131.215 40.6562 131.199 40.0572 131.173 39.5416C131.158 39.0312 131.137 38.5833 131.111 38.2083C131.079 37.8333 131.038 37.5208 130.986 37.2708C130.944 37.0208 130.902 36.8124 130.861 36.6458V36.5833H133.007V36.6458C132.965 36.8124 132.923 37.0208 132.882 37.2708C132.84 37.5208 132.798 37.8333 132.757 38.2083C132.725 38.5833 132.704 39.0312 132.694 39.5416C132.678 40.0572 132.673 40.6562 132.673 41.3333V54.1874H132.236L119.777 40.9374V49.2083C119.777 49.8906 119.783 50.4895 119.798 50.9999C119.824 51.5156 119.85 51.9583 119.882 52.3333C119.908 52.6979 119.944 52.9999 119.986 53.2499C120.027 53.4999 120.074 53.7187 120.132 53.8958V53.9374H117.965V53.8958C118.017 53.7187 118.069 53.4999 118.111 53.2499C118.152 52.9999 118.184 52.6979 118.215 52.3333C118.257 51.9583 118.283 51.5156 118.298 50.9999C118.309 50.4895 118.319 49.8906 118.319 49.2083V41.3333C118.319 40.6562 118.309 40.0572 118.298 39.5416C118.283 39.0312 118.257 38.5833 118.215 38.2083C118.184 37.8333 118.152 37.5208 118.111 37.2708C118.069 37.0208 118.017 36.8124 117.965 36.6458V36.5833H118.757Z" fill="black"/>
<path d="M153.592 53.9374V53.8958C153.603 53.8541 153.613 53.7916 153.613 53.7083C153.624 53.6249 153.634 53.5572 153.634 53.4999C153.634 53.2499 153.598 52.9739 153.53 52.6666C153.457 52.3645 153.327 51.9791 153.134 51.5208L151.676 48.2499C151.228 48.2239 150.634 48.2083 149.884 48.2083C149.134 48.2083 148.322 48.2083 147.447 48.2083C146.806 48.2083 146.186 48.2083 145.592 48.2083C145.009 48.2083 144.478 48.2239 144.009 48.2499L142.613 51.4374C142.488 51.7291 142.353 52.0572 142.217 52.4166C142.077 52.7656 142.009 53.1249 142.009 53.4999C142.009 53.5989 142.014 53.6822 142.03 53.7499C142.056 53.8228 142.077 53.8697 142.092 53.8958V53.9374H139.613V53.8958C139.77 53.7447 139.947 53.4739 140.155 53.0833C140.374 52.6822 140.618 52.1874 140.884 51.6041L147.801 36.2291H148.78L155.342 51.0208C155.493 51.3541 155.655 51.6874 155.822 52.0208C155.988 52.3437 156.139 52.6353 156.28 52.8958C156.431 53.1614 156.561 53.3853 156.676 53.5624C156.785 53.7291 156.863 53.8437 156.905 53.8958V53.9374H153.592ZM145.759 47.1666C146.217 47.1666 146.686 47.1666 147.176 47.1666C147.676 47.1666 148.16 47.1666 148.634 47.1666C149.103 47.1562 149.556 47.1458 149.988 47.1458C150.431 47.1458 150.827 47.1406 151.176 47.1249L147.78 39.4374L144.447 47.1666H145.759Z" fill="black"/>
<path d="M12.5208 41.3333C12.5208 40.6562 12.5052 40.0572 12.4792 39.5416C12.4635 39.0312 12.4427 38.5833 12.4167 38.2083C12.3854 37.8333 12.3542 37.5208 12.3125 37.2708C12.2708 37.0208 12.2187 36.8124 12.1667 36.6458V36.5833H14.3333V36.6458C14.276 36.8124 14.2292 37.0208 14.1875 37.2708C14.1458 37.5208 14.1094 37.8333 14.0833 38.2083C14.0521 38.5833 14.026 39.0312 14 39.5416C13.9844 40.0572 13.9792 40.6562 13.9792 41.3333V47.8749C13.9792 49.0312 13.8125 50.0156 13.4792 50.8333C13.1458 51.6406 12.6875 52.3072 12.1042 52.8333C11.5208 53.3489 10.8125 53.7239 9.97917 53.9583C9.15625 54.1927 8.26042 54.3124 7.29167 54.3124C6.31771 54.3124 5.40625 54.1927 4.5625 53.9583C3.71354 53.7395 2.97917 53.3749 2.35417 52.8749C1.72917 52.3749 1.23437 51.7239 0.875 50.9166C0.526041 50.1145 0.354167 49.1354 0.354167 47.9791V41.3333C0.354167 40.6562 0.343749 40.0572 0.333333 39.5416C0.317708 39.0312 0.291667 38.5833 0.25 38.2083C0.218749 37.8333 0.1875 37.5208 0.145833 37.2708C0.104167 37.0208 0.0520827 36.8124 0 36.6458V36.5833H2.91667V36.6458C2.85937 36.8124 2.8125 37.0208 2.77083 37.2708C2.72917 37.5208 2.6875 37.8333 2.64583 38.2083C2.61458 38.5833 2.59375 39.0312 2.58333 39.5416C2.56771 40.0572 2.5625 40.6562 2.5625 41.3333V48.1249C2.5625 49.0833 2.69792 49.8749 2.97917 50.4999C3.27083 51.1249 3.64583 51.6249 4.10417 51.9999C4.57292 52.3645 5.10937 52.6197 5.70833 52.7708C6.30208 52.9114 6.91667 52.9791 7.54167 52.9791C8.16667 52.9791 8.77604 52.9114 9.375 52.7708C9.96875 52.6197 10.5 52.3645 10.9583 51.9999C11.4167 51.6249 11.7917 51.1249 12.0833 50.4999C12.375 49.8749 12.5208 49.0833 12.5208 48.1249V41.3333Z" fill="black"/>
<path d="M23.0186 53.8958C23.0706 53.7187 23.1227 53.4999 23.1644 53.2499C23.2061 52.9999 23.2373 52.6979 23.2686 52.3333C23.2946 51.9583 23.3154 51.5156 23.3311 50.9999C23.3571 50.4895 23.3727 49.8906 23.3727 49.2083V41.3333C23.3727 40.6562 23.3571 40.0572 23.3311 39.5416C23.3154 39.0312 23.2946 38.5833 23.2686 38.2083C23.2373 37.8333 23.2061 37.5208 23.1644 37.2708C23.1227 37.0208 23.0706 36.8124 23.0186 36.6458V36.5833H25.9144V36.6458C25.8727 36.8124 25.8206 37.0208 25.7686 37.2708C25.7269 37.5208 25.6904 37.8333 25.6644 38.2083C25.6331 38.5833 25.6071 39.0312 25.5811 39.5416C25.5654 40.0572 25.5602 40.6562 25.5602 41.3333V49.2083C25.5602 49.8906 25.5654 50.4895 25.5811 50.9999C25.6071 51.5156 25.6331 51.9583 25.6644 52.3333C25.6904 52.6979 25.7269 52.9999 25.7686 53.2499C25.8206 53.4999 25.8727 53.7187 25.9144 53.8958V53.9374H23.0186V53.8958Z" fill="black"/>
<path d="M47.1248 41.3333C47.1248 40.6562 47.1092 40.0572 47.0832 39.5416C47.0675 39.0312 47.0467 38.5833 47.0207 38.2083C46.9894 37.8333 46.9582 37.5208 46.9165 37.2708C46.8748 37.0208 46.8228 36.8124 46.7707 36.6458V36.5833H48.9373V36.6458C48.88 36.8124 48.8332 37.0208 48.7915 37.2708C48.7498 37.5208 48.7134 37.8333 48.6873 38.2083C48.6561 38.5833 48.63 39.0312 48.604 39.5416C48.5884 40.0572 48.5832 40.6562 48.5832 41.3333V47.8749C48.5832 49.0312 48.4165 50.0156 48.0832 50.8333C47.7498 51.6406 47.2915 52.3072 46.7082 52.8333C46.1248 53.3489 45.4165 53.7239 44.5832 53.9583C43.7603 54.1927 42.8644 54.3124 41.8957 54.3124C40.9217 54.3124 40.0103 54.1927 39.1665 53.9583C38.3175 53.7395 37.5832 53.3749 36.9582 52.8749C36.3332 52.3749 35.8384 51.7239 35.479 50.9166C35.13 50.1145 34.9582 49.1354 34.9582 47.9791V41.3333C34.9582 40.6562 34.9478 40.0572 34.9373 39.5416C34.9217 39.0312 34.8957 38.5833 34.854 38.2083C34.8228 37.8333 34.7915 37.5208 34.7498 37.2708C34.7082 37.0208 34.6561 36.8124 34.604 36.6458V36.5833H37.5207V36.6458C37.4634 36.8124 37.4165 37.0208 37.3748 37.2708C37.3332 37.5208 37.2915 37.8333 37.2498 38.2083C37.2186 38.5833 37.1978 39.0312 37.1873 39.5416C37.1717 40.0572 37.1665 40.6562 37.1665 41.3333V48.1249C37.1665 49.0833 37.3019 49.8749 37.5832 50.4999C37.8748 51.1249 38.2498 51.6249 38.7082 51.9999C39.1769 52.3645 39.7134 52.6197 40.3123 52.7708C40.9061 52.9114 41.5207 52.9791 42.1457 52.9791C42.7707 52.9791 43.38 52.9114 43.979 52.7708C44.5728 52.6197 45.104 52.3645 45.5623 51.9999C46.0207 51.6249 46.3957 51.1249 46.6873 50.4999C46.979 49.8749 47.1248 49.0833 47.1248 48.1249V41.3333Z" fill="black"/>
<path d="M68.0373 47L62.1414 54.4791C61.9175 54.7448 61.7039 55.0208 61.4956 55.3125C61.2873 55.5937 61.0998 55.8646 60.9331 56.125C60.7664 56.3906 60.6258 56.6406 60.5164 56.875C60.4019 57.0989 60.3498 57.2864 60.3498 57.4375H57.1206V57.375C57.3706 57.1666 57.7144 56.8489 58.1623 56.4166C58.6206 55.9739 59.0998 55.4271 59.5998 54.7708L66.9331 45.5625L59.4123 35.6666C58.9956 35.1406 58.5841 34.6979 58.1831 34.3333C57.7925 33.9739 57.4956 33.7396 57.2873 33.625V33.5625H62.5164C62.5164 33.6875 62.5269 33.8646 62.5581 34.0833C62.5998 34.2916 62.6727 34.5416 62.7873 34.8333C62.8966 35.1146 63.0477 35.4271 63.2456 35.7708C63.4383 36.1041 63.6935 36.4739 64.0164 36.875L68.8289 43.1875L74.1206 36.5416C74.3289 36.2916 74.5269 36.0312 74.7248 35.75C74.9175 35.4583 75.0841 35.1823 75.2248 34.9166C75.3758 34.6406 75.5008 34.3854 75.5998 34.1458C75.6935 33.9114 75.7456 33.7187 75.7456 33.5625H78.9748V33.625C78.8602 33.7083 78.7352 33.8125 78.5998 33.9375C78.4748 34.0625 78.3185 34.2187 78.1414 34.3958C77.9748 34.5781 77.7873 34.7916 77.5789 35.0416C77.3706 35.2812 77.131 35.5625 76.8706 35.8958L69.9123 44.6458L77.6831 54.8125C78.2091 55.4948 78.7039 56.0625 79.1623 56.5208C79.6206 56.9687 79.9591 57.25 80.1831 57.375V57.4375H74.9956C74.9956 57.1875 74.8914 56.7708 74.6831 56.1875C74.4748 55.5937 74.0789 54.9062 73.4956 54.125L68.0373 47Z" fill="black"/>
<defs>
<clipPath id="clip0_77_2276">
<rect width="30" height="30" fill="white" transform="translate(53.6641)"/>
</clipPath>
</defs>
</svg>
