<svg width="157" height="75" viewBox="0 0 157 75" fill="none" xmlns="http://www.w3.org/2000/svg">
<g clip-path="url(#clip0_77_3025)">
<path d="M83.4822 17.013L81.2629 9.03242L81.9191 1.35439C81.9461 1.06803 81.9493 0.670675 81.7255 0.356665C81.4354 -0.0497707 80.9191 -0.0722846 80.4593 0.106247C80.234 0.193538 72.8275 5.33382 72.7468 5.43731C72.6522 5.43336 68.513 5.36266 68.513 5.36266C68.513 5.36266 64.3733 5.43336 64.2791 5.43731C64.1989 5.33382 56.7919 0.193538 56.5666 0.106247C56.1072 -0.0718896 55.5905 -0.0497707 55.3004 0.356665C55.0766 0.67028 55.0798 1.06803 55.1068 1.35439L55.763 9.03242L53.5442 17.013C53.4949 17.1868 53.4901 17.3476 53.6379 17.5103C54.7106 18.6905 68.2793 29.9514 68.5133 30C68.7474 29.951 82.3161 18.6901 83.3888 17.5103C83.5366 17.3476 83.5318 17.1868 83.4825 17.013H83.4822ZM78.905 3.45411C79.0266 3.32179 79.1351 3.17327 79.3294 3.12272C79.4383 3.09428 79.6454 3.17525 79.709 3.27558L79.0782 8.47708C79.0782 8.47708 78.6824 8.85113 78.6478 8.82466C78.4566 8.67892 75.7029 7.12111 75.5304 7.00262C76.0097 6.54997 78.905 3.45371 78.905 3.45371V3.45411ZM73.6867 7.68554C73.6867 7.68554 77.295 9.50403 77.4058 9.66005C77.3737 9.70587 71.0974 13.6628 70.9051 13.737C70.9309 13.5933 73.6867 7.68554 73.6867 7.68554ZM69.5888 18.9579C69.797 18.5384 70.175 17.7955 70.3686 17.4313C70.3999 17.3725 70.4464 17.3495 70.4949 17.361C70.4941 17.3788 72.3867 18.8043 72.5938 18.9121C72.7031 18.969 72.7909 19.0634 72.7984 19.1787C72.8056 19.2936 72.7627 19.3861 72.6677 19.4797L70.5776 21.5028C70.4739 21.6011 70.3785 21.6777 70.2247 21.6165C70.2247 21.6165 69.2852 21.231 69.0014 21.0683C69.1155 20.8424 69.894 19.3711 70.0784 19.0077L69.5888 18.9579ZM75.1381 13.8603C75.1238 14.0202 74.1433 15.9932 74.1433 15.9932C73.54 16.1362 71.6383 16.4636 70.9329 16.5777C70.9329 16.5777 72.2556 14.8213 72.5715 14.4081C72.6574 14.2955 72.7611 14.2331 72.899 14.2098C72.899 14.2098 74.9748 13.8401 75.1381 13.8603ZM68.5133 6.941L72.4062 6.93389C72.4117 7.02671 68.5773 14.8738 68.5133 14.9354C68.4494 14.8738 64.615 7.02671 64.6205 6.93389L68.5133 6.941ZM68.0249 21.0679C67.7411 21.2306 66.8016 21.6161 66.8016 21.6161C66.6482 21.6774 66.5524 21.6007 66.4487 21.5024L64.3586 19.4793C64.2636 19.3857 64.2207 19.2932 64.2279 19.1783C64.2354 19.063 64.3232 18.9686 64.4325 18.9117C64.6392 18.8039 66.5318 17.3784 66.5314 17.3606C66.5795 17.3495 66.6264 17.3725 66.6577 17.4309C66.8517 17.7951 67.2297 18.538 67.4375 18.9575L66.9479 19.0073C67.1323 19.3707 67.9108 20.842 68.0249 21.0679ZM66.1216 13.7374C65.9289 13.6632 59.6526 9.70626 59.6209 9.66044C59.7317 9.50443 63.34 7.68593 63.34 7.68593C63.34 7.68593 66.0958 13.5937 66.1216 13.7374ZM66.0934 16.5777C65.3884 16.4636 63.4867 16.1358 62.883 15.9932C62.883 15.9932 61.9025 14.0202 61.8882 13.8603C62.0515 13.8405 64.1273 14.2098 64.1273 14.2098C64.2652 14.2331 64.3686 14.2955 64.4548 14.4081C64.7704 14.8213 66.0934 16.5777 66.0934 16.5777ZM57.6969 3.12272C57.8912 3.17327 57.9997 3.32179 58.1214 3.45411C58.1214 3.45411 61.0166 6.55036 61.4959 7.00301C61.3234 7.12151 58.5693 8.67931 58.3785 8.82506C58.3439 8.85113 57.9481 8.47748 57.9481 8.47748L57.3174 3.27597C57.3813 3.17564 57.5884 3.09467 57.6969 3.12311V3.12272ZM57.2466 10.606C57.4572 10.8276 59.1996 13.2848 59.2365 13.3361L55.8814 15.5279L57.2466 10.6064V10.606ZM56.1358 16.7511L60.0012 14.2663C60.0854 14.2122 60.1633 14.2481 60.2162 14.3192C60.5894 14.8209 61.8413 16.3984 62.1251 16.6789C62.2177 16.7705 62.3655 16.7906 62.4752 16.8057C62.4752 16.8057 65.4996 17.2073 65.5406 17.216C65.5088 17.2559 63.7728 18.3915 63.5475 18.463C62.9648 18.3646 56.3349 16.8669 56.3349 16.8669C56.2594 16.8511 56.1751 16.8495 56.135 16.7511H56.1358ZM59.6558 20.9032C59.5223 20.8736 59.4368 20.8096 59.3415 20.7108C59.07 20.4296 56.7081 18.2485 56.5026 18.0415C57.061 18.1818 61.9196 19.2012 62.2805 19.296C61.974 19.5448 60.3354 20.6034 59.8295 20.8866C59.7675 20.9214 59.7055 20.9142 59.6558 20.9032ZM61.1204 21.4822C61.112 21.4396 61.1573 21.4096 61.2046 21.3811L63.1639 20.2084C63.5093 20.7582 64.5077 22.5171 64.5077 22.5171L61.2205 21.5766C61.1684 21.5616 61.1267 21.5122 61.1208 21.4822H61.1204ZM61.6756 22.5597C61.8918 22.5992 65.0891 23.5357 65.107 23.5401C65.107 23.5401 66.4042 25.7986 66.5846 26.0743C66.4666 26.0423 61.6756 22.5597 61.6756 22.5597ZM66.1792 22.8927C66.7786 22.6115 67.8715 22.1798 68.2304 22.0316C68.2399 22.5597 68.2721 25.2823 68.2721 25.2823C68.2566 25.2582 66.767 23.6025 66.1792 22.8927ZM67.7348 19.3442H69.2911L68.513 20.8337L67.7348 19.3442ZM68.7959 22.0316C69.1548 22.1794 70.2477 22.6115 70.8471 22.8927C70.2593 23.6029 68.7697 25.2586 68.7542 25.2823C68.7542 25.2823 68.786 22.5597 68.7959 22.0316ZM70.4421 26.0743C70.6225 25.7986 71.9197 23.5401 71.9197 23.5401C71.9376 23.5353 75.1349 22.5992 75.3511 22.5597C75.3511 22.5597 70.5601 26.0423 70.4421 26.0743ZM75.9059 21.4822C75.9 21.5122 75.8583 21.5616 75.8062 21.5766L72.519 22.5171C72.519 22.5171 73.5174 20.7582 73.8628 20.2084L75.8221 21.3811C75.8694 21.4096 75.9147 21.4396 75.9063 21.4822H75.9059ZM77.6848 20.7112C77.5895 20.81 77.5044 20.874 77.3705 20.9036C77.3208 20.9146 77.2588 20.9218 77.1968 20.887C76.6905 20.6038 75.0523 19.5452 74.7458 19.2964C75.1067 19.2016 79.9649 18.1822 80.5237 18.0419C80.3182 18.2493 77.9563 20.43 77.6848 20.7112ZM80.691 16.8669C80.691 16.8669 74.0615 18.3646 73.4784 18.463C73.2531 18.3911 71.5171 17.2559 71.4853 17.216C71.5263 17.2077 74.5507 16.8057 74.5507 16.8057C74.6604 16.791 74.8082 16.7705 74.9008 16.6789C75.1846 16.398 76.4365 14.8209 76.8097 14.3192C76.863 14.2478 76.9405 14.2118 77.0247 14.2663L80.8901 16.7511C80.8504 16.8495 80.7657 16.8511 80.6902 16.8669H80.691ZM77.7898 13.3361C77.8267 13.2852 79.5691 10.8276 79.7797 10.606L81.1449 15.5275L77.7898 13.3357V13.3361Z" fill="#CDA349"/>
</g>
<path d="M41.4515 66.4434C41.4359 66.9017 41.4307 67.3392 41.4307 67.7559C41.4307 67.9382 41.4202 68.1257 41.4098 68.3184C41.4098 68.5007 41.4098 68.6882 41.4098 68.8809C41.4098 69.0632 41.4098 69.2351 41.4098 69.4017C41.4098 69.5684 41.4098 69.7142 41.4098 69.8392C41.4098 70.1049 41.4098 70.433 41.4098 70.8184C41.4098 71.209 41.4098 71.6049 41.4098 72.0059C41.4202 72.4121 41.4359 72.7976 41.4515 73.1726C41.4619 73.5371 41.4775 73.8392 41.4932 74.0892C41.5452 74.0892 41.6234 74.0996 41.7223 74.1101C41.8161 74.1257 41.915 74.1413 42.014 74.1517C42.1234 74.1517 42.2275 74.1517 42.3265 74.1517C42.4202 74.1517 42.5036 74.1517 42.5765 74.1517C42.8682 74.1517 43.1598 74.1413 43.4515 74.1101C43.7432 74.0684 44.0244 74.0007 44.3057 73.9017C44.5817 73.7924 44.8369 73.6465 45.0765 73.4642C45.3265 73.2715 45.54 73.0267 45.7223 72.7351C45.8994 72.4434 46.04 72.0996 46.139 71.6934C46.2484 71.2767 46.3057 70.7924 46.3057 70.2351C46.3057 69.6257 46.2275 69.084 46.0765 68.6101C45.9359 68.1257 45.7223 67.7142 45.4307 67.3809C45.1494 67.0476 44.7952 66.7976 44.3682 66.6309C43.9359 66.4642 43.4515 66.3809 42.9098 66.3809C42.7952 66.3809 42.6702 66.3809 42.5348 66.3809C42.3942 66.3809 42.2536 66.3913 42.1182 66.4017C41.9932 66.4017 41.8682 66.4121 41.7432 66.4226C41.6286 66.4382 41.5348 66.4434 41.4515 66.4434ZM40.1182 65.9017C40.2119 65.9017 40.3057 65.9121 40.389 65.9226C40.4567 65.9226 40.5244 65.9226 40.5973 65.9226C40.665 65.9226 40.7275 65.9226 40.7848 65.9226C40.8525 65.9226 40.9775 65.9226 41.1598 65.9226C41.3369 65.9121 41.54 65.9017 41.764 65.9017C41.9984 65.8913 42.2432 65.8809 42.4932 65.8809C42.7432 65.8705 42.9723 65.8601 43.1807 65.8601C43.764 65.8601 44.3161 65.933 44.8473 66.0684C45.3734 66.209 45.8369 66.4434 46.2432 66.7767C46.6442 67.1101 46.9567 67.5476 47.1807 68.0892C47.415 68.6205 47.5348 69.2715 47.5348 70.0476C47.5348 70.6205 47.4723 71.1257 47.3473 71.5684C47.2327 72.0163 47.0661 72.4121 46.8473 72.7559C46.6234 73.0892 46.3525 73.3809 46.0348 73.6309C45.7275 73.8809 45.389 74.084 45.014 74.2351C44.6494 74.3913 44.2536 74.5059 43.8265 74.5892C43.4098 74.6569 42.9723 74.6934 42.514 74.6934C42.3577 74.6934 42.165 74.683 41.9307 74.6726C41.7067 74.6569 41.4775 74.6413 41.2432 74.6309C41.0192 74.6153 40.8057 74.5996 40.5973 74.5892C40.3994 74.5892 40.2432 74.5892 40.1182 74.5892V74.5684C40.1442 74.4851 40.165 74.3809 40.1807 74.2559C40.2067 74.1309 40.2275 73.9799 40.2432 73.7976C40.2692 73.6049 40.2848 73.3809 40.2848 73.1309C40.2952 72.8705 40.3057 72.5684 40.3057 72.2351V68.2976C40.3057 67.9538 40.2952 67.6517 40.2848 67.4017C40.2848 67.1413 40.2692 66.9174 40.2432 66.7351C40.2275 66.5424 40.2067 66.3809 40.1807 66.2559C40.165 66.1205 40.1442 66.0059 40.1182 65.9226V65.9017Z" fill="white"/>
<path d="M52.4805 65.9226C52.9909 65.9226 53.4909 65.9226 53.9805 65.9226C54.4805 65.9226 54.9388 65.9226 55.3555 65.9226C55.7721 65.9121 56.1263 65.8965 56.418 65.8809C56.7096 65.8705 56.9076 65.8496 57.0221 65.8184L56.7305 66.6309C56.5898 66.5892 56.4284 66.558 56.2513 66.5267C56.0951 66.5163 55.9076 66.4955 55.6888 66.4642C55.4805 66.4382 55.2305 66.4226 54.9388 66.4226C54.8398 66.4226 54.7201 66.433 54.5846 66.4434C54.4596 66.4434 54.3346 66.4538 54.2096 66.4642C54.0534 66.4642 53.9076 66.4746 53.7721 66.4851V69.7767C54.1888 69.7767 54.5638 69.7715 54.8971 69.7559C55.2305 69.7298 55.5117 69.709 55.7513 69.6934C56.0117 69.6673 56.2513 69.6413 56.4596 69.6101L56.2721 70.4851C55.9909 70.4434 55.7096 70.4121 55.418 70.3809C55.168 70.3548 54.8971 70.334 54.6055 70.3184C54.3138 70.2923 54.0326 70.2767 53.7721 70.2767V74.0476C54.2409 74.0476 54.6732 74.0371 55.0638 74.0059C55.4648 73.9642 55.819 73.9173 56.1263 73.8601C56.4701 73.808 56.7826 73.7351 57.0638 73.6517L56.8971 74.6309C56.8398 74.6309 56.7617 74.6205 56.668 74.6101C56.5846 74.6101 56.4805 74.6101 56.3555 74.6101C56.2305 74.6101 56.1055 74.6101 55.9805 74.6101C55.8555 74.6101 55.7305 74.5996 55.6055 74.5892C55.4909 74.5892 55.3867 74.5892 55.293 74.5892C55.2096 74.5892 55.1471 74.5892 55.1055 74.5892H52.4805V74.5684C52.5065 74.4851 52.5273 74.3809 52.543 74.2559C52.569 74.1309 52.5898 73.9798 52.6055 73.7976C52.6315 73.6048 52.6471 73.3809 52.6471 73.1309C52.6576 72.8705 52.668 72.5684 52.668 72.2351V68.2976C52.668 67.9538 52.6576 67.6517 52.6471 67.4017C52.6471 67.1413 52.6315 66.9173 52.6055 66.7351C52.5898 66.5423 52.569 66.3809 52.543 66.2559C52.5273 66.1309 52.5065 66.0267 52.4805 65.9434V65.9226Z" fill="white"/>
<path d="M65.7048 67.2976H65.5798C65.5381 67.2143 65.4808 67.1205 65.4131 67.0059C65.3402 66.8809 65.2516 66.7716 65.1423 66.6726C65.0277 66.5632 64.8923 66.4747 64.7256 66.4018C64.5589 66.3341 64.361 66.2976 64.1423 66.2976C63.9443 66.2976 63.7725 66.3341 63.6214 66.4018C63.4652 66.4591 63.335 66.5424 63.2256 66.6518C63.1266 66.7507 63.0485 66.8757 62.9964 67.0268C62.9548 67.183 62.9339 67.3497 62.9339 67.5268C62.9339 67.8184 63.0068 68.0997 63.1631 68.3601C63.3298 68.6257 63.5277 68.8913 63.7673 69.1518C64.0173 69.4018 64.2881 69.6622 64.5798 69.9226C64.8714 70.1726 65.1318 70.4382 65.3714 70.7143C65.6214 70.9955 65.8193 71.2872 65.9756 71.5893C66.1423 71.8966 66.2256 72.2247 66.2256 72.5684C66.2256 72.8341 66.1735 73.0997 66.0798 73.3601C65.9964 73.6257 65.8558 73.8601 65.6631 74.0684C65.4808 74.2768 65.236 74.4538 64.9339 74.5893C64.6423 74.7143 64.2933 74.7768 63.8923 74.7768C63.6527 74.7768 63.4339 74.7559 63.2256 74.7143C63.0173 74.6726 62.8193 74.6205 62.6423 74.5684C62.4756 74.5007 62.3193 74.433 62.1839 74.3601C62.0433 74.2768 61.9339 74.2091 61.8506 74.1518L61.9756 72.8184H62.1423C62.1839 73.0163 62.2516 73.1934 62.3506 73.3601C62.4443 73.5268 62.5641 73.683 62.7048 73.8184C62.8558 73.9434 63.0277 74.0476 63.2256 74.1309C63.4183 74.2038 63.6266 74.2351 63.8506 74.2351C64.0589 74.2351 64.236 74.2091 64.3923 74.1518C64.5589 74.0841 64.6943 74.0007 64.8089 73.9018C64.9339 73.7924 65.0225 73.6622 65.0798 73.5059C65.1475 73.3393 65.1839 73.1674 65.1839 72.9851C65.1839 72.7351 65.1318 72.5059 65.0381 72.2976C64.9548 72.0788 64.835 71.8705 64.6839 71.6726C64.5277 71.4799 64.3558 71.2924 64.1631 71.1101C63.9652 70.933 63.7673 70.7507 63.5589 70.5684C63.361 70.3913 63.1683 70.2038 62.9756 70.0059C62.7933 69.8132 62.6266 69.6049 62.4756 69.3809C62.3193 69.1622 62.1943 68.9226 62.1006 68.6726C62.0173 68.4226 61.9756 68.1466 61.9756 67.8393C61.9756 67.5216 62.0277 67.2351 62.1423 66.9851C62.2673 66.7351 62.4339 66.5216 62.6423 66.3393C62.8506 66.1466 63.0798 66.0059 63.3298 65.9226C63.5902 65.8288 63.861 65.7768 64.1423 65.7768C64.335 65.7768 64.5173 65.7924 64.6839 65.8184C64.8506 65.8497 65.0016 65.8913 65.1423 65.9434C65.2777 65.9851 65.3975 66.0268 65.4964 66.0684C65.5902 66.1101 65.6735 66.1466 65.7464 66.1726L65.7048 67.2976Z" fill="white"/>
<path d="M71.3062 74.5684C71.3322 74.4851 71.353 74.3809 71.3687 74.2559C71.3947 74.1309 71.4155 73.9799 71.4312 73.7976C71.4416 73.6049 71.452 73.3809 71.452 73.1309C71.4624 72.8705 71.4728 72.5684 71.4728 72.2351V68.2976C71.4728 67.9538 71.4624 67.6517 71.452 67.4017C71.452 67.1413 71.4416 66.9174 71.4312 66.7351C71.4155 66.5424 71.3947 66.3809 71.3687 66.2559C71.353 66.1309 71.3322 66.0267 71.3062 65.9434V65.9226H72.7437V65.9434C72.728 66.0267 72.7072 66.1309 72.6812 66.2559C72.6499 66.3809 72.6291 66.5424 72.6187 66.7351C72.603 66.9174 72.5874 67.1413 72.577 67.4017C72.577 67.6517 72.577 67.9538 72.577 68.2976V72.2351C72.577 72.5684 72.577 72.8705 72.577 73.1309C72.5874 73.3809 72.603 73.6049 72.6187 73.7976C72.6291 73.9799 72.6499 74.1309 72.6812 74.2559C72.7072 74.3809 72.728 74.4851 72.7437 74.5684V74.5892H71.3062V74.5684Z" fill="white"/>
<path d="M85.7061 73.5684C85.7061 73.6101 85.6956 73.6622 85.6852 73.7143C85.6696 73.7559 85.6436 73.7976 85.6019 73.8393C85.4196 73.9799 85.2269 74.1049 85.0186 74.2143C84.8102 74.3288 84.5811 74.4226 84.3311 74.5059C84.0915 74.5893 83.8311 74.6518 83.5394 74.6934C83.2581 74.7455 82.9561 74.7768 82.6227 74.7768C81.8831 74.7768 81.2113 74.6726 80.6019 74.4643C80.0029 74.2455 79.4873 73.9382 79.0602 73.5476C78.6279 73.1466 78.2946 72.6674 78.0602 72.1101C77.8206 71.558 77.7061 70.9434 77.7061 70.2768C77.7061 69.8913 77.7529 69.5163 77.8519 69.1518C77.9456 68.7768 78.0863 68.4226 78.2686 68.0893C78.4613 67.7559 78.6956 67.4538 78.9769 67.1726C79.2529 66.8809 79.5706 66.6413 79.9352 66.4434C80.2946 66.2351 80.6852 66.0788 81.1019 65.9643C81.529 65.8393 81.9977 65.7768 82.4977 65.7768C82.6904 65.7768 82.8831 65.7924 83.0811 65.8184C83.2894 65.8341 83.4873 65.8601 83.6852 65.9018C83.8936 65.933 84.0863 65.9747 84.2686 66.0268C84.4456 66.0684 84.6227 66.1205 84.7894 66.1726L85.2061 67.2976L85.1436 67.3184C84.9873 67.183 84.8102 67.0476 84.6019 66.9226C84.404 66.7976 84.1904 66.6934 83.9561 66.6101C83.7165 66.5163 83.4665 66.4434 83.2061 66.4018C82.9561 66.3497 82.6956 66.3184 82.4352 66.3184C81.9352 66.3184 81.4665 66.4018 81.0394 66.5684C80.6227 66.7247 80.2581 66.9538 79.9561 67.2559C79.6488 67.5632 79.4144 67.9382 79.2477 68.3809C79.0811 68.8132 78.9977 69.308 78.9977 69.8601C78.9977 70.4851 79.0706 71.0632 79.2269 71.5893C79.3936 72.1205 79.6331 72.5788 79.9561 72.9643C80.2738 73.3393 80.6696 73.6413 81.1436 73.8601C81.6123 74.0841 82.1696 74.1934 82.8102 74.1934C83.0863 74.1934 83.3363 74.1726 83.5602 74.1309C83.779 74.0788 83.9665 74.0216 84.1227 73.9643C84.2738 73.8966 84.3936 73.8288 84.4769 73.7559C84.5602 73.6726 84.6019 73.5997 84.6019 73.5268V73.2976C84.6019 73.0059 84.5915 72.7663 84.5811 72.5684C84.5811 72.3601 84.5654 72.183 84.5394 72.0268C84.5238 71.8757 84.5029 71.7455 84.4769 71.6309C84.4613 71.5216 84.4404 71.4226 84.4144 71.3393V71.3184H85.8727V71.3393C85.8415 71.4226 85.8154 71.5216 85.7894 71.6309C85.7738 71.7455 85.7581 71.8809 85.7477 72.0476C85.7321 72.2038 85.7165 72.3809 85.7061 72.5893C85.7061 72.7976 85.7061 73.0424 85.7061 73.3184V73.5684Z" fill="white"/>
<path d="M91.1273 65.9226L97.3356 72.5476V68.2976C97.3356 67.9538 97.3252 67.6517 97.3148 67.4017C97.3148 67.1413 97.3044 66.9174 97.2939 66.7351C97.2783 66.5424 97.2575 66.3809 97.2314 66.2559C97.2158 66.1309 97.195 66.0267 97.1689 65.9434V65.9226H98.2523V65.9434C98.221 66.0267 98.195 66.1309 98.1689 66.2559C98.1533 66.3809 98.1377 66.5424 98.1273 66.7351C98.1117 66.9174 98.096 67.1413 98.0856 67.4017C98.0856 67.6517 98.0856 67.9538 98.0856 68.2976V74.7142H97.8564L91.6481 68.0892V72.2351C91.6481 72.5684 91.6481 72.8705 91.6481 73.1309C91.6585 73.3809 91.6742 73.6049 91.6898 73.7976C91.7002 73.9799 91.7158 74.1309 91.7314 74.2559C91.7575 74.3809 91.7835 74.4851 91.8148 74.5684V74.5892H90.7314V74.5684C90.7575 74.4851 90.7783 74.3809 90.7939 74.2559C90.82 74.1309 90.8408 73.9799 90.8564 73.7976C90.8669 73.6049 90.8825 73.3809 90.8981 73.1309C90.9085 72.8705 90.9189 72.5684 90.9189 72.2351V68.2976C90.9189 67.9538 90.9085 67.6517 90.8981 67.4017C90.8825 67.1413 90.8669 66.9174 90.8564 66.7351C90.8408 66.5424 90.82 66.3809 90.7939 66.2559C90.7783 66.1309 90.7575 66.0267 90.7314 65.9434V65.9226H91.1273Z" fill="white"/>
<path d="M90.821 37.4669C89.8626 37.4669 88.998 37.5085 88.2376 37.5919C87.472 37.6752 86.8105 37.769 86.2585 37.8627C85.6178 37.9773 85.0397 38.1075 84.5293 38.2585L84.8835 36.3002C84.9772 36.3002 85.123 36.3106 85.321 36.321C85.5137 36.3367 85.7272 36.3523 85.9668 36.3627C86.2012 36.3627 86.4512 36.3627 86.7168 36.3627C86.9772 36.3627 87.222 36.3731 87.446 36.3835C87.6803 36.3835 87.8887 36.3835 88.071 36.3835C88.248 36.3835 88.3835 36.3835 88.4668 36.3835H95.3835C95.4668 36.3835 95.597 36.3835 95.7793 36.3835C95.9564 36.3835 96.1595 36.3835 96.3835 36.3835C96.6178 36.3731 96.8678 36.3627 97.1335 36.3627C97.3939 36.3627 97.6439 36.3627 97.8835 36.3627C98.1178 36.3523 98.3314 36.3367 98.5293 36.321C98.722 36.3106 98.8678 36.3002 98.9668 36.3002L99.321 38.2585C98.8053 38.1075 98.222 37.9773 97.571 37.8627C97.0137 37.769 96.3522 37.6752 95.5918 37.5919C94.8262 37.5085 93.972 37.4669 93.0293 37.4669V49.0085C93.0293 49.6908 93.0345 50.2898 93.0501 50.8002C93.0605 51.3158 93.0814 51.7585 93.1126 52.1335C93.1543 52.4981 93.196 52.8002 93.2376 53.0502C93.2793 53.3002 93.321 53.519 93.3626 53.696V53.7377H90.4876V53.696C90.5293 53.519 90.571 53.3002 90.6126 53.0502C90.6543 52.8002 90.6855 52.4981 90.7168 52.1335C90.7585 51.7585 90.7845 51.3158 90.8001 50.8002C90.8105 50.2898 90.821 49.6908 90.821 49.0085V37.4669Z" fill="white"/>
<path d="M106.379 53.696C106.431 53.5189 106.483 53.3002 106.525 53.0502C106.566 52.8002 106.598 52.4981 106.629 52.1335C106.655 51.7585 106.676 51.3158 106.691 50.8002C106.717 50.2898 106.733 49.6908 106.733 49.0085V41.1335C106.733 40.4564 106.717 39.8575 106.691 39.3418C106.676 38.8314 106.655 38.3835 106.629 38.0085C106.598 37.6335 106.566 37.321 106.525 37.071C106.483 36.821 106.431 36.6127 106.379 36.446V36.3835H109.275V36.446C109.233 36.6127 109.181 36.821 109.129 37.071C109.087 37.321 109.051 37.6335 109.025 38.0085C108.993 38.3835 108.967 38.8314 108.941 39.3418C108.926 39.8575 108.921 40.4564 108.921 41.1335V49.0085C108.921 49.6908 108.926 50.2898 108.941 50.8002C108.967 51.3158 108.993 51.7585 109.025 52.1335C109.051 52.4981 109.087 52.8002 109.129 53.0502C109.181 53.3002 109.233 53.5189 109.275 53.696V53.7377H106.379V53.696Z" fill="white"/>
<path d="M118.757 36.3835L131.215 49.6543V41.1335C131.215 40.4564 131.199 39.8575 131.173 39.3418C131.158 38.8314 131.137 38.3835 131.111 38.0085C131.079 37.6335 131.038 37.321 130.986 37.071C130.944 36.821 130.902 36.6127 130.861 36.446V36.3835H133.007V36.446C132.965 36.6127 132.923 36.821 132.882 37.071C132.84 37.321 132.798 37.6335 132.757 38.0085C132.725 38.3835 132.704 38.8314 132.694 39.3418C132.678 39.8575 132.673 40.4564 132.673 41.1335V53.9877H132.236L119.777 40.7377V49.0085C119.777 49.6908 119.783 50.2898 119.798 50.8002C119.824 51.3158 119.85 51.7585 119.882 52.1335C119.908 52.4981 119.944 52.8002 119.986 53.0502C120.027 53.3002 120.074 53.5189 120.132 53.696V53.7377H117.965V53.696C118.017 53.5189 118.069 53.3002 118.111 53.0502C118.152 52.8002 118.184 52.4981 118.215 52.1335C118.257 51.7585 118.283 51.3158 118.298 50.8002C118.309 50.2898 118.319 49.6908 118.319 49.0085V41.1335C118.319 40.4564 118.309 39.8575 118.298 39.3418C118.283 38.8314 118.257 38.3835 118.215 38.0085C118.184 37.6335 118.152 37.321 118.111 37.071C118.069 36.821 118.017 36.6127 117.965 36.446V36.3835H118.757Z" fill="white"/>
<path d="M153.592 53.7377V53.696C153.603 53.6543 153.613 53.5918 153.613 53.5085C153.624 53.4252 153.634 53.3575 153.634 53.3002C153.634 53.0502 153.598 52.7741 153.53 52.4668C153.457 52.1647 153.327 51.7793 153.134 51.321L151.676 48.0502C151.228 48.0241 150.634 48.0085 149.884 48.0085C149.134 48.0085 148.322 48.0085 147.447 48.0085C146.806 48.0085 146.186 48.0085 145.592 48.0085C145.009 48.0085 144.478 48.0241 144.009 48.0502L142.613 51.2377C142.488 51.5293 142.353 51.8575 142.217 52.2168C142.077 52.5658 142.009 52.9252 142.009 53.3002C142.009 53.3991 142.014 53.4825 142.03 53.5502C142.056 53.6231 142.077 53.67 142.092 53.696V53.7377H139.613V53.696C139.77 53.545 139.947 53.2741 140.155 52.8835C140.374 52.4825 140.618 51.9877 140.884 51.4043L147.801 36.0293H148.78L155.342 50.821C155.493 51.1543 155.655 51.4877 155.822 51.821C155.988 52.1439 156.139 52.4356 156.28 52.696C156.431 52.9616 156.561 53.1856 156.676 53.3627C156.785 53.5293 156.863 53.6439 156.905 53.696V53.7377H153.592ZM145.759 46.9668C146.217 46.9668 146.686 46.9668 147.176 46.9668C147.676 46.9668 148.16 46.9668 148.634 46.9668C149.103 46.9564 149.556 46.946 149.988 46.946C150.431 46.946 150.827 46.9408 151.176 46.9252L147.78 39.2377L144.447 46.9668H145.759Z" fill="white"/>
<path d="M12.5208 41.1335C12.5208 40.4564 12.5052 39.8575 12.4792 39.3418C12.4635 38.8314 12.4427 38.3835 12.4167 38.0085C12.3854 37.6335 12.3542 37.321 12.3125 37.071C12.2708 36.821 12.2187 36.6127 12.1667 36.446V36.3835H14.3333V36.446C14.276 36.6127 14.2292 36.821 14.1875 37.071C14.1458 37.321 14.1094 37.6335 14.0833 38.0085C14.0521 38.3835 14.026 38.8314 14 39.3418C13.9844 39.8575 13.9792 40.4564 13.9792 41.1335V47.6752C13.9792 48.8314 13.8125 49.8158 13.4792 50.6335C13.1458 51.4408 12.6875 52.1075 12.1042 52.6335C11.5208 53.1491 10.8125 53.5241 9.97917 53.7585C9.15625 53.9929 8.26042 54.1127 7.29167 54.1127C6.31771 54.1127 5.40625 53.9929 4.5625 53.7585C3.71354 53.5398 2.97917 53.1752 2.35417 52.6752C1.72917 52.1752 1.23437 51.5241 0.875 50.7168C0.526041 49.9148 0.354167 48.9356 0.354167 47.7793V41.1335C0.354167 40.4564 0.343749 39.8575 0.333333 39.3418C0.317708 38.8314 0.291667 38.3835 0.25 38.0085C0.218749 37.6335 0.1875 37.321 0.145833 37.071C0.104167 36.821 0.0520827 36.6127 0 36.446V36.3835H2.91667V36.446C2.85937 36.6127 2.8125 36.821 2.77083 37.071C2.72917 37.321 2.6875 37.6335 2.64583 38.0085C2.61458 38.3835 2.59375 38.8314 2.58333 39.3418C2.56771 39.8575 2.5625 40.4564 2.5625 41.1335V47.9252C2.5625 48.8835 2.69792 49.6752 2.97917 50.3002C3.27083 50.9252 3.64583 51.4252 4.10417 51.8002C4.57292 52.1648 5.10937 52.42 5.70833 52.571C6.30208 52.7116 6.91667 52.7793 7.54167 52.7793C8.16667 52.7793 8.77604 52.7116 9.375 52.571C9.96875 52.42 10.5 52.1648 10.9583 51.8002C11.4167 51.4252 11.7917 50.9252 12.0833 50.3002C12.375 49.6752 12.5208 48.8835 12.5208 47.9252V41.1335Z" fill="white"/>
<path d="M23.0186 53.696C23.0706 53.5189 23.1227 53.3002 23.1644 53.0502C23.2061 52.8002 23.2373 52.4981 23.2686 52.1335C23.2946 51.7585 23.3154 51.3158 23.3311 50.8002C23.3571 50.2898 23.3727 49.6908 23.3727 49.0085V41.1335C23.3727 40.4564 23.3571 39.8575 23.3311 39.3418C23.3154 38.8314 23.2946 38.3835 23.2686 38.0085C23.2373 37.6335 23.2061 37.321 23.1644 37.071C23.1227 36.821 23.0706 36.6127 23.0186 36.446V36.3835H25.9144V36.446C25.8727 36.6127 25.8206 36.821 25.7686 37.071C25.7269 37.321 25.6904 37.6335 25.6644 38.0085C25.6331 38.3835 25.6071 38.8314 25.5811 39.3418C25.5654 39.8575 25.5602 40.4564 25.5602 41.1335V49.0085C25.5602 49.6908 25.5654 50.2898 25.5811 50.8002C25.6071 51.3158 25.6331 51.7585 25.6644 52.1335C25.6904 52.4981 25.7269 52.8002 25.7686 53.0502C25.8206 53.3002 25.8727 53.5189 25.9144 53.696V53.7377H23.0186V53.696Z" fill="white"/>
<path d="M47.1248 41.1335C47.1248 40.4564 47.1092 39.8575 47.0832 39.3418C47.0675 38.8314 47.0467 38.3835 47.0207 38.0085C46.9894 37.6335 46.9582 37.321 46.9165 37.071C46.8748 36.821 46.8228 36.6127 46.7707 36.446V36.3835H48.9373V36.446C48.88 36.6127 48.8332 36.821 48.7915 37.071C48.7498 37.321 48.7134 37.6335 48.6873 38.0085C48.6561 38.3835 48.63 38.8314 48.604 39.3418C48.5884 39.8575 48.5832 40.4564 48.5832 41.1335V47.6752C48.5832 48.8314 48.4165 49.8158 48.0832 50.6335C47.7498 51.4408 47.2915 52.1075 46.7082 52.6335C46.1248 53.1491 45.4165 53.5241 44.5832 53.7585C43.7603 53.9929 42.8644 54.1127 41.8957 54.1127C40.9217 54.1127 40.0103 53.9929 39.1665 53.7585C38.3175 53.5398 37.5832 53.1752 36.9582 52.6752C36.3332 52.1752 35.8384 51.5241 35.479 50.7168C35.13 49.9148 34.9582 48.9356 34.9582 47.7793V41.1335C34.9582 40.4564 34.9478 39.8575 34.9373 39.3418C34.9217 38.8314 34.8957 38.3835 34.854 38.0085C34.8228 37.6335 34.7915 37.321 34.7498 37.071C34.7082 36.821 34.6561 36.6127 34.604 36.446V36.3835H37.5207V36.446C37.4634 36.6127 37.4165 36.821 37.3748 37.071C37.3332 37.321 37.2915 37.6335 37.2498 38.0085C37.2186 38.3835 37.1978 38.8314 37.1873 39.3418C37.1717 39.8575 37.1665 40.4564 37.1665 41.1335V47.9252C37.1665 48.8835 37.3019 49.6752 37.5832 50.3002C37.8748 50.9252 38.2498 51.4252 38.7082 51.8002C39.1769 52.1648 39.7134 52.42 40.3123 52.571C40.9061 52.7116 41.5207 52.7793 42.1457 52.7793C42.7707 52.7793 43.38 52.7116 43.979 52.571C44.5728 52.42 45.104 52.1648 45.5623 51.8002C46.0207 51.4252 46.3957 50.9252 46.6873 50.3002C46.979 49.6752 47.1248 48.8835 47.1248 47.9252V41.1335Z" fill="white"/>
<path d="M68.0373 46.8002L62.1414 54.2794C61.9175 54.545 61.7039 54.821 61.4956 55.1127C61.2873 55.394 61.0998 55.6648 60.9331 55.9252C60.7664 56.1908 60.6258 56.4408 60.5164 56.6752C60.4019 56.8992 60.3498 57.0867 60.3498 57.2377H57.1206V57.1752C57.3706 56.9669 57.7144 56.6492 58.1623 56.2169C58.6206 55.7742 59.0998 55.2273 59.5998 54.571L66.9331 45.3627L59.4123 35.4669C58.9956 34.9408 58.5841 34.4981 58.1831 34.1335C57.7925 33.7742 57.4956 33.5398 57.2873 33.4252V33.3627H62.5164C62.5164 33.4877 62.5269 33.6648 62.5581 33.8835C62.5998 34.0919 62.6727 34.3419 62.7873 34.6335C62.8966 34.9148 63.0477 35.2273 63.2456 35.571C63.4383 35.9044 63.6935 36.2742 64.0164 36.6752L68.8289 42.9877L74.1206 36.3419C74.3289 36.0919 74.5269 35.8315 74.7248 35.5502C74.9175 35.2585 75.0841 34.9825 75.2248 34.7169C75.3758 34.4408 75.5008 34.1856 75.5998 33.946C75.6935 33.7117 75.7456 33.519 75.7456 33.3627H78.9748V33.4252C78.8602 33.5085 78.7352 33.6127 78.5998 33.7377C78.4748 33.8627 78.3185 34.019 78.1414 34.196C77.9748 34.3783 77.7873 34.5919 77.5789 34.8419C77.3706 35.0815 77.131 35.3627 76.8706 35.696L69.9123 44.446L77.6831 54.6127C78.2091 55.295 78.7039 55.8627 79.1623 56.321C79.6206 56.769 79.9591 57.0502 80.1831 57.1752V57.2377H74.9956C74.9956 56.9877 74.8914 56.571 74.6831 55.9877C74.4748 55.394 74.0789 54.7065 73.4956 53.9252L68.0373 46.8002Z" fill="white"/>
<defs>
<clipPath id="clip0_77_3025">
<rect width="30" height="30" fill="white" transform="translate(53.5132)"/>
</clipPath>
</defs>
</svg>
